thinwide.ufo
<glyph name="exclam" format="1">
  <advance width="89"/>
  <unicode hex="0021"/>
  <outline>
    <contour>
      <point x="59" y="18"/>
      <point x="30" y="18"/>
      <point x="59" y="18" type="curve"/>
      <point x="59" y="27"/>
      <point x="52" y="32"/>
      <point x="42" y="32" type="curve"/>
      <point x="34" y="32"/>
      <point x="30" y="26"/>
      <point x="30" y="18" type="curve"/>
      <point x="59" y="18"/>
      <point x="30" y="18"/>
      <point x="59" y="18" type="curve"/>
      <point x="59" y="9"/>
      <point x="52" y="5"/>
      <point x="42" y="5" type="curve"/>
      <point x="34" y="5"/>
      <point x="30" y="10"/>
      <point x="30" y="18" type="curve"/>
    </contour>
    <contour>
      <point x="54" y="229"/>
      <point x="30" y="229"/>
      <point x="54" y="229" type="curve"/>
      <point x="54" y="393"/>
      <point x="54" y="558"/>
      <point x="54" y="722" type="curve"/>
      <point x="30" y="722"/>
      <point x="54" y="722"/>
      <point x="30" y="722" type="curve"/>
      <point x="30" y="558"/>
      <point x="30" y="393"/>
      <point x="30" y="229" type="curve"/>
    </contour>
  </outline>
</glyph>
<glyph name="quotedbl" format="1">
  <advance width="335"/>
  <unicode hex="0022"/>
  <outline>
    <contour>
      <point x="54" y="658"/>
      <point x="30" y="658"/>
      <point x="54" y="658" type="curve"/>
      <point x="54" y="721"/>
      <point x="54" y="783"/>
      <point x="54" y="846" type="curve"/>
      <point x="30" y="846"/>
      <point x="54" y="846"/>
      <point x="30" y="846" type="curve"/>
      <point x="30" y="783"/>
      <point x="30" y="721"/>
      <point x="30" y="658" type="curve"/>
    </contour>
    <contour>
      <point x="305" y="658"/>
      <point x="282" y="658"/>
      <point x="305" y="658" type="curve"/>
      <point x="305" y="721"/>
      <point x="305" y="783"/>
      <point x="305" y="846" type="curve"/>
      <point x="282" y="846"/>
      <point x="305" y="846"/>
      <point x="282" y="846" type="curve"/>
      <point x="282" y="783"/>
      <point x="282" y="721"/>
      <point x="282" y="658" type="curve"/>
    </contour>
  </outline>
</glyph>
<glyph name="numbersign" format="1">
  <advance width="823"/>
  <unicode hex="0023"/>
  <outline>
    <contour>
      <point x="30" y="258"/>
      <point x="36" y="280"/>
      <point x="30" y="258" type="curve"/>
      <point x="248" y="258"/>
      <point x="466" y="258"/>
      <point x="685" y="258" type="curve"/>
      <point x="689" y="280"/>
      <point x="685" y="258"/>
      <point x="689" y="280" type="curve"/>
      <point x="471" y="280"/>
      <point x="253" y="280"/>
      <point x="36" y="280" type="curve"/>
    </contour>
    <contour>
      <point x="134" y="472"/>
      <point x="139" y="494"/>
      <point x="134" y="472" type="curve"/>
      <point x="352" y="472"/>
      <point x="570" y="472"/>
      <point x="789" y="472" type="curve"/>
      <point x="793" y="494"/>
      <point x="789" y="472"/>
      <point x="793" y="494" type="curve"/>
      <point x="575" y="494"/>
      <point x="357" y="494"/>
      <point x="139" y="494" type="curve"/>
    </contour>
    <contour>
      <point x="444" y="39"/>
      <point x="420" y="39"/>
      <point x="444" y="39" type="curve"/>
      <point x="444" y="39"/>
      <point x="737" y="722"/>
      <point x="737" y="722" type="curve"/>
      <point x="713" y="722"/>
      <point x="737" y="722"/>
      <point x="713" y="722" type="curve"/>
      <point x="713" y="722"/>
      <point x="420" y="39"/>
      <point x="420" y="39" type="curve"/>
    </contour>
    <contour>
      <point x="120" y="46"/>
      <point x="97" y="46"/>
      <point x="120" y="46" type="curve"/>
      <point x="120" y="46"/>
      <point x="407" y="722"/>
      <point x="407" y="722" type="curve"/>
      <point x="383" y="722"/>
      <point x="407" y="722"/>
      <point x="383" y="722" type="curve"/>
      <point x="383" y="722"/>
      <point x="97" y="46"/>
      <point x="97" y="46" type="curve"/>
    </contour>
  </outline>
</glyph>
<glyph name="dollar" format="1">
  <advance width="627"/>
  <unicode hex="0024"/>
  <outline>
    <contour>
      <point x="52" y="99"/>
      <point x="30" y="99"/>
      <point x="52" y="99" type="curve"/>
      <point x="52" y="219"/>
      <point x="52" y="99"/>
      <point x="52" y="219" type="curve"/>
      <point x="30" y="219"/>
      <point x="52" y="219"/>
      <point x="30" y="219" type="curve"/>
      <point x="30" y="99"/>
      <point x="30" y="219"/>
      <point x="30" y="99" type="curve"/>
    </contour>
    <contour>
      <point x="554" y="631"/>
      <point x="576" y="631"/>
      <point x="554" y="631" type="curve"/>
      <point x="554" y="511"/>
      <point x="554" y="631"/>
      <point x="554" y="511" type="curve"/>
      <point x="576" y="511"/>
      <point x="554" y="511"/>
      <point x="576" y="511" type="curve"/>
      <point x="576" y="631"/>
      <point x="576" y="511"/>
      <point x="576" y="631" type="curve"/>
    </contour>
    <contour>
      <point x="306" y="-43"/>
      <point x="282" y="-43"/>
      <point x="306" y="-43" type="curve"/>
      <point x="306" y="-9"/>
      <point x="306" y="25"/>
      <point x="306" y="59" type="curve"/>
      <point x="282" y="59"/>
      <point x="306" y="59"/>
      <point x="282" y="59" type="curve"/>
      <point x="282" y="25"/>
      <point x="282" y="-9"/>
      <point x="282" y="-43" type="curve"/>
    </contour>
    <contour>
      <point x="322" y="671"/>
      <point x="298" y="671"/>
      <point x="322" y="671" type="curve"/>
      <point x="322" y="705"/>
      <point x="322" y="739"/>
      <point x="322" y="773" type="curve"/>
      <point x="298" y="773"/>
      <point x="322" y="773"/>
      <point x="298" y="773" type="curve"/>
      <point x="298" y="739"/>
      <point x="298" y="705"/>
      <point x="298" y="671" type="curve"/>
    </contour>
    <contour>
      <point x="32" y="99"/>
      <point x="45" y="118"/>
      <point x="32" y="99" type="curve"/>
      <point x="107" y="71"/>
      <point x="194" y="48"/>
      <point x="293" y="48" type="curve"/>
      <point x="454" y="48"/>
      <point x="596" y="73"/>
      <point x="596" y="198" type="curve"/>
      <point x="596" y="320"/>
      <point x="456" y="342"/>
      <point x="321" y="385" type="curve"/>
      <point x="201" y="423"/>
      <point x="91" y="436"/>
      <point x="91" y="543" type="curve"/>
      <point x="91" y="639"/>
      <point x="195" y="662"/>
      <point x="317" y="662" type="curve"/>
      <point x="411" y="662"/>
      <point x="478" y="647"/>
      <point x="564" y="613" type="curve"/>
      <point x="576" y="631"/>
      <point x="564" y="613"/>
      <point x="576" y="631" type="curve"/>
      <point x="487" y="666"/>
      <point x="417" y="683"/>
      <point x="318" y="683" type="curve"/>
      <point x="181" y="683"/>
      <point x="67" y="651"/>
      <point x="67" y="543" type="curve"/>
      <point x="67" y="429"/>
      <point x="180" y="405"/>
      <point x="306" y="365" type="curve"/>
      <point x="435" y="326"/>
      <point x="572" y="313"/>
      <point x="572" y="197" type="curve"/>
      <point x="572" y="82"/>
      <point x="442" y="69"/>
      <point x="295" y="69" type="curve"/>
      <point x="201" y="69"/>
      <point x="116" y="93"/>
      <point x="45" y="118" type="curve"/>
    </contour>
  </outline>
</glyph>
<glyph name="percent" format="1">
  <advance width="1063"/>
  <unicode hex="0025"/>
  <outline>
    <contour>
      <point x="636" y="176"/>
      <point x="613" y="176"/>
      <point x="636" y="176" type="curve"/>
      <point x="636" y="281"/>
      <point x="714" y="342"/>
      <point x="823" y="342" type="curve"/>
      <point x="930" y="342"/>
      <point x="1009" y="279"/>
      <point x="1009" y="177" type="curve"/>
      <point x="1009" y="75"/>
      <point x="931" y="10"/>
      <point x="825" y="10" type="curve"/>
      <point x="716" y="10"/>
      <point x="636" y="73"/>
      <point x="636" y="176" type="curve"/>
      <point x="613" y="176"/>
      <point x="636" y="176"/>
      <point x="613" y="176" type="curve"/>
      <point x="613" y="60"/>
      <point x="702" y="-12"/>
      <point x="824" y="-12" type="curve"/>
      <point x="945" y="-12"/>
      <point x="1033" y="60"/>
      <point x="1033" y="178" type="curve"/>
      <point x="1033" y="294"/>
      <point x="943" y="364"/>
      <point x="824" y="364" type="curve"/>
      <point x="699" y="365"/>
      <point x="613" y="295"/>
      <point x="613" y="176" type="curve"/>
    </contour>
    <contour>
      <point x="53" y="674"/>
      <point x="30" y="674"/>
      <point x="53" y="674" type="curve"/>
      <point x="53" y="779"/>
      <point x="131" y="840"/>
      <point x="239" y="840" type="curve"/>
      <point x="347" y="841"/>
      <point x="426" y="777"/>
      <point x="426" y="675" type="curve"/>
      <point x="426" y="573"/>
      <point x="348" y="507"/>
      <point x="242" y="507" type="curve"/>
      <point x="133" y="507"/>
      <point x="53" y="571"/>
      <point x="53" y="674" type="curve"/>
      <point x="30" y="674"/>
      <point x="53" y="674"/>
      <point x="30" y="674" type="curve"/>
      <point x="30" y="557"/>
      <point x="115" y="486"/>
      <point x="241" y="486" type="curve"/>
      <point x="362" y="486"/>
      <point x="450" y="558"/>
      <point x="450" y="676" type="curve"/>
      <point x="450" y="792"/>
      <point x="360" y="862"/>
      <point x="241" y="862" type="curve"/>
      <point x="116" y="862"/>
      <point x="30" y="793"/>
      <point x="30" y="674" type="curve"/>
    </contour>
    <contour>
      <point x="253" y="1"/>
      <point x="229" y="1"/>
      <point x="253" y="1" type="curve"/>
      <point x="444" y="284"/>
      <point x="636" y="568"/>
      <point x="828" y="851" type="curve"/>
      <point x="804" y="851"/>
      <point x="828" y="851"/>
      <point x="804" y="851" type="curve"/>
      <point x="612" y="568"/>
      <point x="420" y="284"/>
      <point x="229" y="1" type="curve"/>
    </contour>
  </outline>
</glyph>
<glyph name="quotesingle" format="1">
  <advance width="84"/>
  <unicode hex="0027"/>
  <outline>
    <contour>
      <point x="54" y="658"/>
      <point x="30" y="658"/>
      <point x="54" y="658" type="curve"/>
      <point x="54" y="721"/>
      <point x="54" y="783"/>
      <point x="54" y="846" type="curve"/>
      <point x="30" y="846"/>
      <point x="54" y="846"/>
      <point x="30" y="846" type="curve"/>
      <point x="30" y="783"/>
      <point x="30" y="721"/>
      <point x="30" y="658" type="curve"/>
    </contour>
  </outline>
</glyph>
<glyph name="parenright" format="1">
  <advance width="422"/>
  <unicode hex="0029"/>
  <outline>
    <contour>
      <point x="44" y="-267"/>
      <point x="30" y="-252"/>
      <point x="44" y="-267" type="curve"/>
      <point x="261" y="-104"/>
      <point x="391" y="57"/>
      <point x="391" y="327" type="curve"/>
      <point x="391" y="591"/>
      <point x="268" y="751"/>
      <point x="50" y="903" type="curve"/>
      <point x="35" y="887"/>
      <point x="50" y="903"/>
      <point x="35" y="887" type="curve"/>
      <point x="244" y="736"/>
      <point x="366" y="582"/>
      <point x="366" y="326" type="curve"/>
      <point x="366" y="65"/>
      <point x="235" y="-89"/>
      <point x="30" y="-252" type="curve"/>
    </contour>
  </outline>
</glyph>
<glyph name="plus" format="1">
  <advance width="835"/>
  <unicode hex="002B"/>
  <outline>
    <contour>
      <point x="30" y="297"/>
      <point x="30" y="321"/>
      <point x="30" y="297" type="curve"/>
      <point x="30" y="297"/>
      <point x="805" y="297"/>
      <point x="805" y="297" type="curve"/>
      <point x="805" y="321"/>
      <point x="805" y="297"/>
      <point x="805" y="321" type="curve"/>
      <point x="805" y="321"/>
      <point x="30" y="321"/>
      <point x="30" y="321" type="curve"/>
    </contour>
    <contour>
      <point x="430" y="18"/>
      <point x="405" y="18"/>
      <point x="430" y="18" type="curve"/>
      <point x="430" y="18"/>
      <point x="430" y="588"/>
      <point x="430" y="588" type="curve"/>
      <point x="405" y="588"/>
      <point x="430" y="588"/>
      <point x="405" y="588" type="curve"/>
      <point x="405" y="588"/>
      <point x="405" y="18"/>
      <point x="405" y="18" type="curve"/>
    </contour>
  </outline>
</glyph>
<glyph name="slash" format="1">
  <advance width="660"/>
  <unicode hex="002F"/>
  <outline>
    <contour>
      <point x="54" y="-68"/>
      <point x="30" y="-68"/>
      <point x="54" y="-68" type="curve"/>
      <point x="246" y="236"/>
      <point x="438" y="540"/>
      <point x="629" y="844" type="curve"/>
      <point x="605" y="844"/>
      <point x="629" y="844"/>
      <point x="605" y="844" type="curve"/>
      <point x="413" y="540"/>
      <point x="222" y="236"/>
      <point x="30" y="-68" type="curve"/>
    </contour>
  </outline>
</glyph>
<glyph name="semicolon" format="1">
  <advance width="234"/>
  <unicode hex="003B"/>
  <outline>
    <contour>
      <point x="159" y="307"/>
      <point x="131" y="307"/>
      <point x="159" y="307" type="curve"/>
      <point x="159" y="316"/>
      <point x="152" y="321"/>
      <point x="143" y="321" type="curve"/>
      <point x="135" y="321"/>
      <point x="131" y="315"/>
      <point x="131" y="307" type="curve"/>
      <point x="159" y="307"/>
      <point x="131" y="307"/>
      <point x="159" y="307" type="curve"/>
      <point x="159" y="298"/>
      <point x="152" y="294"/>
      <point x="143" y="294" type="curve"/>
      <point x="135" y="294"/>
      <point x="131" y="299"/>
      <point x="131" y="307" type="curve"/>
    </contour>
    <contour>
      <point x="59" y="-99"/>
      <point x="30" y="-99"/>
      <point x="59" y="-99" type="curve"/>
      <point x="107" y="-39"/>
      <point x="155" y="22"/>
      <point x="204" y="82" type="curve"/>
      <point x="171" y="82"/>
      <point x="204" y="82"/>
      <point x="171" y="82" type="curve"/>
      <point x="124" y="22"/>
      <point x="77" y="-39"/>
      <point x="30" y="-99" type="curve"/>
    </contour>
  </outline>
</glyph>
<glyph name="equal" format="1">
  <advance width="910"/>
  <unicode hex="003D"/>
  <outline>
    <contour>
      <point x="30" y="206"/>
      <point x="30" y="229"/>
      <point x="30" y="206" type="curve"/>
      <point x="313" y="206"/>
      <point x="596" y="206"/>
      <point x="879" y="206" type="curve"/>
      <point x="879" y="229"/>
      <point x="879" y="206"/>
      <point x="879" y="229" type="curve"/>
      <point x="596" y="229"/>
      <point x="313" y="229"/>
      <point x="30" y="229" type="curve"/>
    </contour>
    <contour>
      <point x="30" y="428"/>
      <point x="30" y="451"/>
      <point x="30" y="428" type="curve"/>
      <point x="313" y="428"/>
      <point x="596" y="428"/>
      <point x="879" y="428" type="curve"/>
      <point x="879" y="451"/>
      <point x="879" y="428"/>
      <point x="879" y="451" type="curve"/>
      <point x="596" y="451"/>
      <point x="313" y="451"/>
      <point x="30" y="451" type="curve"/>
    </contour>
  </outline>
</glyph>
<glyph name="B" format="1">
  <advance width="811"/>
  <unicode hex="0042"/>
  <outline>
    <contour>
      <point x="230" y="722"/>
      <point x="230" y="700"/>
      <point x="230" y="722" type="curve"/>
      <point x="164" y="722"/>
      <point x="98" y="722"/>
      <point x="31" y="722" type="curve"/>
      <point x="31" y="700"/>
      <point x="31" y="722"/>
      <point x="31" y="700" type="curve"/>
      <point x="230" y="700"/>
      <point x="31" y="700"/>
      <point x="230" y="700" type="curve"/>
    </contour>
    <contour>
      <point x="229" y="22"/>
      <point x="229" y="0"/>
      <point x="229" y="22" type="curve"/>
      <point x="30" y="22"/>
      <point x="229" y="22"/>
      <point x="30" y="22" type="curve"/>
      <point x="30" y="0"/>
      <point x="30" y="22"/>
      <point x="30" y="0" type="curve"/>
      <point x="96" y="0"/>
      <point x="163" y="0"/>
      <point x="229" y="0" type="curve"/>
    </contour>
    <contour>
      <point x="216" y="700"/>
      <point x="216" y="722"/>
      <point x="216" y="700" type="curve"/>
      <point x="313" y="700"/>
      <point x="410" y="700"/>
      <point x="507" y="700" type="curve"/>
      <point x="612" y="700"/>
      <point x="694" y="656"/>
      <point x="694" y="555" type="curve"/>
      <point x="694" y="447"/>
      <point x="570" y="421"/>
      <point x="449" y="421" type="curve"/>
      <point x="371" y="421"/>
      <point x="293" y="421"/>
      <point x="216" y="421" type="curve"/>
      <point x="216" y="399"/>
      <point x="216" y="421"/>
      <point x="216" y="399" type="curve"/>
      <point x="289" y="399"/>
      <point x="363" y="399"/>
      <point x="437" y="399" type="curve"/>
      <point x="578" y="399"/>
      <point x="718" y="430"/>
      <point x="718" y="555" type="curve"/>
      <point x="718" y="669"/>
      <point x="630" y="722"/>
      <point x="507" y="722" type="curve"/>
      <point x="410" y="722"/>
      <point x="313" y="722"/>
      <point x="216" y="722" type="curve"/>
    </contour>
    <contour>
      <point x="244" y="0"/>
      <point x="218" y="0"/>
      <point x="244" y="0" type="curve"/>
      <point x="244" y="241"/>
      <point x="244" y="481"/>
      <point x="244" y="722" type="curve"/>
      <point x="218" y="722"/>
      <point x="244" y="722"/>
      <point x="218" y="722" type="curve"/>
      <point x="218" y="481"/>
      <point x="218" y="241"/>
      <point x="218" y="0" type="curve"/>
    </contour>
    <contour>
      <point x="216" y="399"/>
      <point x="216" y="421"/>
      <point x="216" y="399" type="curve"/>
      <point x="293" y="399"/>
      <point x="371" y="399"/>
      <point x="449" y="399" type="curve"/>
      <point x="614" y="399"/>
      <point x="757" y="355"/>
      <point x="757" y="204" type="curve"/>
      <point x="757" y="73"/>
      <point x="650" y="22"/>
      <point x="504" y="22" type="curve"/>
      <point x="408" y="22"/>
      <point x="312" y="22"/>
      <point x="216" y="22" type="curve"/>
      <point x="216" y="0"/>
      <point x="216" y="22"/>
      <point x="216" y="0" type="curve"/>
      <point x="312" y="0"/>
      <point x="408" y="0"/>
      <point x="504" y="0" type="curve"/>
      <point x="666" y="0"/>
      <point x="781" y="59"/>
      <point x="781" y="204" type="curve"/>
      <point x="781" y="372"/>
      <point x="622" y="421"/>
      <point x="437" y="421" type="curve"/>
      <point x="363" y="421"/>
      <point x="289" y="421"/>
      <point x="216" y="421" type="curve"/>
    </contour>
  </outline>
</glyph>
<glyph name="E" format="1">
  <advance width="837"/>
  <unicode hex="0045"/>
  <outline>
    <contour>
      <point x="654" y="374"/>
      <point x="676" y="374"/>
      <point x="654" y="374" type="curve"/>
      <point x="654" y="254"/>
      <point x="654" y="374"/>
      <point x="654" y="254" type="curve"/>
      <point x="676" y="254"/>
      <point x="654" y="254"/>
      <point x="676" y="254" type="curve"/>
      <point x="676" y="374"/>
      <point x="676" y="254"/>
      <point x="676" y="374" type="curve"/>
    </contour>
    <contour>
      <point x="676" y="374"/>
      <point x="654" y="374"/>
      <point x="676" y="374" type="curve"/>
      <point x="676" y="494"/>
      <point x="676" y="374"/>
      <point x="676" y="494" type="curve"/>
      <point x="654" y="494"/>
      <point x="676" y="494"/>
      <point x="654" y="494" type="curve"/>
      <point x="654" y="374"/>
      <point x="654" y="494"/>
      <point x="654" y="374" type="curve"/>
    </contour>
    <contour>
      <point x="807" y="11"/>
      <point x="785" y="11"/>
      <point x="807" y="11" type="curve"/>
      <point x="807" y="131"/>
      <point x="807" y="11"/>
      <point x="807" y="131" type="curve"/>
      <point x="785" y="131"/>
      <point x="807" y="131"/>
      <point x="785" y="131" type="curve"/>
      <point x="785" y="11"/>
      <point x="785" y="131"/>
      <point x="785" y="11" type="curve"/>
    </contour>
    <contour>
      <point x="739" y="711"/>
      <point x="761" y="711"/>
      <point x="739" y="711" type="curve"/>
      <point x="739" y="591"/>
      <point x="739" y="711"/>
      <point x="739" y="591" type="curve"/>
      <point x="761" y="591"/>
      <point x="739" y="591"/>
      <point x="761" y="591" type="curve"/>
      <point x="761" y="711"/>
      <point x="761" y="591"/>
      <point x="761" y="711" type="curve"/>
    </contour>
    <contour>
      <point x="229" y="22"/>
      <point x="229" y="0"/>
      <point x="229" y="22" type="curve"/>
      <point x="30" y="22"/>
      <point x="229" y="22"/>
      <point x="30" y="22" type="curve"/>
      <point x="30" y="0"/>
      <point x="30" y="22"/>
      <point x="30" y="0" type="curve"/>
      <point x="96" y="0"/>
      <point x="163" y="0"/>
      <point x="229" y="0" type="curve"/>
    </contour>
    <contour>
      <point x="229" y="722"/>
      <point x="229" y="700"/>
      <point x="229" y="722" type="curve"/>
      <point x="163" y="722"/>
      <point x="96" y="722"/>
      <point x="30" y="722" type="curve"/>
      <point x="30" y="700"/>
      <point x="30" y="722"/>
      <point x="30" y="700" type="curve"/>
      <point x="229" y="700"/>
      <point x="30" y="700"/>
      <point x="229" y="700" type="curve"/>
    </contour>
    <contour>
      <point x="233" y="363"/>
      <point x="233" y="385"/>
      <point x="233" y="363" type="curve"/>
      <point x="381" y="363"/>
      <point x="528" y="363"/>
      <point x="676" y="363" type="curve"/>
      <point x="676" y="385"/>
      <point x="676" y="363"/>
      <point x="676" y="385" type="curve"/>
      <point x="528" y="385"/>
      <point x="381" y="385"/>
      <point x="233" y="385" type="curve"/>
    </contour>
    <contour>
      <point x="213" y="700"/>
      <point x="213" y="722"/>
      <point x="213" y="700" type="curve"/>
      <point x="396" y="700"/>
      <point x="578" y="700"/>
      <point x="761" y="700" type="curve"/>
      <point x="761" y="722"/>
      <point x="761" y="700"/>
      <point x="761" y="722" type="curve"/>
      <point x="578" y="722"/>
      <point x="396" y="722"/>
      <point x="213" y="722" type="curve"/>
    </contour>
    <contour>
      <point x="240" y="0"/>
      <point x="216" y="0"/>
      <point x="240" y="0" type="curve"/>
      <point x="240" y="0"/>
      <point x="240" y="722"/>
      <point x="240" y="722" type="curve"/>
      <point x="216" y="722"/>
      <point x="240" y="722"/>
      <point x="216" y="722" type="curve"/>
      <point x="216" y="481"/>
      <point x="216" y="241"/>
      <point x="216" y="0" type="curve"/>
    </contour>
    <contour>
      <point x="213" y="0"/>
      <point x="213" y="22"/>
      <point x="213" y="0" type="curve"/>
      <point x="411" y="0"/>
      <point x="609" y="0"/>
      <point x="807" y="0" type="curve"/>
      <point x="807" y="22"/>
      <point x="807" y="0"/>
      <point x="807" y="22" type="curve"/>
      <point x="609" y="22"/>
      <point x="411" y="22"/>
      <point x="213" y="22" type="curve"/>
    </contour>
  </outline>
</glyph>
<glyph name="F" format="1">
  <advance width="798"/>
  <unicode hex="0046"/>
  <outline>
    <contour>
      <point x="229" y="0"/>
      <point x="229" y="22"/>
      <point x="229" y="0" type="curve"/>
      <point x="295" y="0"/>
      <point x="229" y="0"/>
      <point x="428" y="0" type="curve"/>
      <point x="428" y="22"/>
      <point x="428" y="0"/>
      <point x="428" y="22" type="curve"/>
      <point x="229" y="22"/>
      <point x="428" y="22"/>
      <point x="229" y="22" type="curve"/>
    </contour>
    <contour>
      <point x="669" y="374"/>
      <point x="647" y="374"/>
      <point x="669" y="374" type="curve"/>
      <point x="669" y="494"/>
      <point x="669" y="374"/>
      <point x="669" y="494" type="curve"/>
      <point x="647" y="494"/>
      <point x="669" y="494"/>
      <point x="647" y="494" type="curve"/>
      <point x="647" y="374"/>
      <point x="647" y="494"/>
      <point x="647" y="374" type="curve"/>
    </contour>
    <contour>
      <point x="229" y="722"/>
      <point x="229" y="700"/>
      <point x="229" y="722" type="curve"/>
      <point x="163" y="722"/>
      <point x="96" y="722"/>
      <point x="30" y="722" type="curve"/>
      <point x="30" y="700"/>
      <point x="30" y="722"/>
      <point x="30" y="700" type="curve"/>
      <point x="229" y="700"/>
      <point x="30" y="700"/>
      <point x="229" y="700" type="curve"/>
    </contour>
    <contour>
      <point x="647" y="374"/>
      <point x="669" y="374"/>
      <point x="647" y="374" type="curve"/>
      <point x="647" y="254"/>
      <point x="647" y="374"/>
      <point x="647" y="254" type="curve"/>
      <point x="669" y="254"/>
      <point x="647" y="254"/>
      <point x="669" y="254" type="curve"/>
      <point x="669" y="374"/>
      <point x="669" y="254"/>
      <point x="669" y="374" type="curve"/>
    </contour>
    <contour>
      <point x="229" y="22"/>
      <point x="229" y="0"/>
      <point x="229" y="22" type="curve"/>
      <point x="30" y="22"/>
      <point x="229" y="22"/>
      <point x="30" y="22" type="curve"/>
      <point x="30" y="0"/>
      <point x="30" y="22"/>
      <point x="30" y="0" type="curve"/>
      <point x="96" y="0"/>
      <point x="163" y="0"/>
      <point x="229" y="0" type="curve"/>
    </contour>
    <contour>
      <point x="746" y="711"/>
      <point x="768" y="711"/>
      <point x="746" y="711" type="curve"/>
      <point x="746" y="591"/>
      <point x="746" y="711"/>
      <point x="746" y="591" type="curve"/>
      <point x="768" y="591"/>
      <point x="746" y="591"/>
      <point x="768" y="591" type="curve"/>
      <point x="768" y="711"/>
      <point x="768" y="591"/>
      <point x="768" y="711" type="curve"/>
    </contour>
    <contour>
      <point x="234" y="363"/>
      <point x="234" y="385"/>
      <point x="234" y="363" type="curve"/>
      <point x="379" y="363"/>
      <point x="524" y="363"/>
      <point x="669" y="363" type="curve"/>
      <point x="669" y="385"/>
      <point x="669" y="363"/>
      <point x="669" y="385" type="curve"/>
      <point x="524" y="385"/>
      <point x="379" y="385"/>
      <point x="234" y="385" type="curve"/>
    </contour>
    <contour>
      <point x="241" y="0"/>
      <point x="217" y="0"/>
      <point x="241" y="0" type="curve"/>
      <point x="241" y="0"/>
      <point x="241" y="722"/>
      <point x="241" y="722" type="curve"/>
      <point x="217" y="722"/>
      <point x="241" y="722"/>
      <point x="217" y="722" type="curve"/>
      <point x="217" y="481"/>
      <point x="217" y="241"/>
      <point x="217" y="0" type="curve"/>
    </contour>
    <contour>
      <point x="214" y="700"/>
      <point x="214" y="722"/>
      <point x="214" y="700" type="curve"/>
      <point x="399" y="700"/>
      <point x="583" y="700"/>
      <point x="768" y="700" type="curve"/>
      <point x="768" y="722"/>
      <point x="768" y="700"/>
      <point x="768" y="722" type="curve"/>
      <point x="583" y="722"/>
      <point x="399" y="722"/>
      <point x="214" y="722" type="curve"/>
    </contour>
  </outline>
</glyph>
<glyph name="H" format="1">
  <advance width="1141"/>
  <unicode hex="0048"/>
  <outline>
    <contour>
      <point x="912" y="700"/>
      <point x="912" y="722"/>
      <point x="912" y="700" type="curve"/>
      <point x="1111" y="700"/>
      <point x="912" y="700"/>
      <point x="1111" y="700" type="curve"/>
      <point x="1111" y="722"/>
      <point x="1111" y="700"/>
      <point x="1111" y="722" type="curve"/>
      <point x="1045" y="722"/>
      <point x="978" y="722"/>
      <point x="912" y="722" type="curve"/>
    </contour>
    <contour>
      <point x="912" y="0"/>
      <point x="912" y="22"/>
      <point x="912" y="0" type="curve"/>
      <point x="978" y="0"/>
      <point x="1045" y="0"/>
      <point x="1111" y="0" type="curve"/>
      <point x="1111" y="22"/>
      <point x="1111" y="0"/>
      <point x="1111" y="22" type="curve"/>
      <point x="912" y="22"/>
      <point x="1111" y="22"/>
      <point x="912" y="22" type="curve"/>
    </contour>
    <contour>
      <point x="912" y="22"/>
      <point x="912" y="0"/>
      <point x="912" y="22" type="curve"/>
      <point x="713" y="22"/>
      <point x="912" y="22"/>
      <point x="713" y="22" type="curve"/>
      <point x="713" y="0"/>
      <point x="713" y="22"/>
      <point x="713" y="0" type="curve"/>
      <point x="779" y="0"/>
      <point x="846" y="0"/>
      <point x="912" y="0" type="curve"/>
    </contour>
    <contour>
      <point x="912" y="722"/>
      <point x="912" y="700"/>
      <point x="912" y="722" type="curve"/>
      <point x="846" y="722"/>
      <point x="779" y="722"/>
      <point x="713" y="722" type="curve"/>
      <point x="713" y="700"/>
      <point x="713" y="722"/>
      <point x="713" y="700" type="curve"/>
      <point x="912" y="700"/>
      <point x="713" y="700"/>
      <point x="912" y="700" type="curve"/>
    </contour>
    <contour>
      <point x="229" y="700"/>
      <point x="229" y="722"/>
      <point x="229" y="700" type="curve"/>
      <point x="428" y="700"/>
      <point x="229" y="700"/>
      <point x="428" y="700" type="curve"/>
      <point x="428" y="722"/>
      <point x="428" y="700"/>
      <point x="428" y="722" type="curve"/>
      <point x="362" y="722"/>
      <point x="295" y="722"/>
      <point x="229" y="722" type="curve"/>
    </contour>
    <contour>
      <point x="229" y="722"/>
      <point x="229" y="700"/>
      <point x="229" y="722" type="curve"/>
      <point x="163" y="722"/>
      <point x="96" y="722"/>
      <point x="30" y="722" type="curve"/>
      <point x="30" y="700"/>
      <point x="30" y="722"/>
      <point x="30" y="700" type="curve"/>
      <point x="229" y="700"/>
      <point x="30" y="700"/>
      <point x="229" y="700" type="curve"/>
    </contour>
    <contour>
      <point x="229" y="0"/>
      <point x="229" y="22"/>
      <point x="229" y="0" type="curve"/>
      <point x="295" y="0"/>
      <point x="229" y="0"/>
      <point x="428" y="0" type="curve"/>
      <point x="428" y="22"/>
      <point x="428" y="0"/>
      <point x="428" y="22" type="curve"/>
      <point x="229" y="22"/>
      <point x="428" y="22"/>
      <point x="229" y="22" type="curve"/>
    </contour>
    <contour>
      <point x="229" y="22"/>
      <point x="229" y="0"/>
      <point x="229" y="22" type="curve"/>
      <point x="30" y="22"/>
      <point x="229" y="22"/>
      <point x="30" y="22" type="curve"/>
      <point x="30" y="0"/>
      <point x="30" y="22"/>
      <point x="30" y="0" type="curve"/>
      <point x="96" y="0"/>
      <point x="163" y="0"/>
      <point x="229" y="0" type="curve"/>
    </contour>
    <contour>
      <point x="241" y="0"/>
      <point x="217" y="0"/>
      <point x="241" y="0" type="curve"/>
      <point x="241" y="0"/>
      <point x="241" y="722"/>
      <point x="241" y="722" type="curve"/>
      <point x="217" y="722"/>
      <point x="241" y="722"/>
      <point x="217" y="722" type="curve"/>
      <point x="217" y="481"/>
      <point x="217" y="241"/>
      <point x="217" y="0" type="curve"/>
    </contour>
    <contour>
      <point x="908" y="374"/>
      <point x="908" y="352"/>
      <point x="908" y="374" type="curve"/>
      <point x="682" y="374"/>
      <point x="455" y="374"/>
      <point x="229" y="374" type="curve"/>
      <point x="229" y="352"/>
      <point x="229" y="374"/>
      <point x="229" y="352" type="curve"/>
      <point x="455" y="352"/>
      <point x="682" y="352"/>
      <point x="908" y="352" type="curve"/>
    </contour>
    <contour>
      <point x="923" y="1"/>
      <point x="899" y="1"/>
      <point x="923" y="1" type="curve"/>
      <point x="923" y="241"/>
      <point x="923" y="481"/>
      <point x="923" y="721" type="curve"/>
      <point x="899" y="721"/>
      <point x="923" y="721"/>
      <point x="899" y="721" type="curve"/>
      <point x="899" y="721"/>
      <point x="899" y="1"/>
      <point x="899" y="1" type="curve"/>
    </contour>
  </outline>
</glyph>
<glyph name="J" format="1">
  <advance width="651"/>
  <unicode hex="004A"/>
  <outline>
    <contour>
      <point x="422" y="722"/>
      <point x="422" y="700"/>
      <point x="422" y="722" type="curve"/>
      <point x="355" y="722"/>
      <point x="289" y="722"/>
      <point x="223" y="722" type="curve"/>
      <point x="223" y="700"/>
      <point x="223" y="722"/>
      <point x="223" y="700" type="curve"/>
      <point x="422" y="700"/>
      <point x="223" y="700"/>
      <point x="422" y="700" type="curve"/>
    </contour>
    <contour>
      <point x="422" y="700"/>
      <point x="422" y="722"/>
      <point x="422" y="700" type="curve"/>
      <point x="621" y="700"/>
      <point x="422" y="700"/>
      <point x="621" y="700" type="curve"/>
      <point x="621" y="722"/>
      <point x="621" y="700"/>
      <point x="621" y="722" type="curve"/>
      <point x="554" y="722"/>
      <point x="488" y="722"/>
      <point x="422" y="722" type="curve"/>
    </contour>
    <contour>
      <point x="30" y="43"/>
      <point x="41" y="60"/>
      <point x="30" y="43" type="curve"/>
      <point x="68" y="23"/>
      <point x="122" y="0"/>
      <point x="187" y="0" type="curve"/>
      <point x="337" y="0"/>
      <point x="432" y="75"/>
      <point x="432" y="219" type="curve"/>
      <point x="432" y="386"/>
      <point x="432" y="554"/>
      <point x="432" y="722" type="curve"/>
      <point x="408" y="722"/>
      <point x="432" y="722"/>
      <point x="408" y="722" type="curve"/>
      <point x="408" y="554"/>
      <point x="408" y="386"/>
      <point x="408" y="219" type="curve"/>
      <point x="408" y="90"/>
      <point x="321" y="22"/>
      <point x="187" y="22" type="curve"/>
      <point x="129" y="22"/>
      <point x="90" y="39"/>
      <point x="41" y="60" type="curve"/>
    </contour>
  </outline>
</glyph>
<glyph name="K" format="1">
  <advance width="1042"/>
  <unicode hex="004B"/>
  <outline>
    <contour>
      <point x="812" y="22"/>
      <point x="811" y="0"/>
      <point x="812" y="22" type="curve"/>
      <point x="613" y="22"/>
      <point x="812" y="22"/>
      <point x="613" y="22" type="curve"/>
      <point x="613" y="0"/>
      <point x="613" y="22"/>
      <point x="613" y="0" type="curve"/>
      <point x="679" y="0"/>
      <point x="745" y="0"/>
      <point x="811" y="0" type="curve"/>
    </contour>
    <contour>
      <point x="781" y="722"/>
      <point x="781" y="700"/>
      <point x="781" y="722" type="curve"/>
      <point x="715" y="722"/>
      <point x="648" y="722"/>
      <point x="582" y="722" type="curve"/>
      <point x="582" y="700"/>
      <point x="582" y="722"/>
      <point x="582" y="700" type="curve"/>
      <point x="781" y="700"/>
      <point x="582" y="700"/>
      <point x="781" y="700" type="curve"/>
    </contour>
    <contour>
      <point x="812" y="0"/>
      <point x="812" y="22"/>
      <point x="812" y="0" type="curve"/>
      <point x="879" y="0"/>
      <point x="945" y="0"/>
      <point x="1011" y="0" type="curve"/>
      <point x="1011" y="22"/>
      <point x="1011" y="0"/>
      <point x="1011" y="22" type="curve"/>
      <point x="812" y="22"/>
      <point x="1011" y="22"/>
      <point x="812" y="22" type="curve"/>
    </contour>
    <contour>
      <point x="781" y="700"/>
      <point x="781" y="722"/>
      <point x="781" y="700" type="curve"/>
      <point x="980" y="700"/>
      <point x="781" y="700"/>
      <point x="980" y="700" type="curve"/>
      <point x="980" y="722"/>
      <point x="980" y="700"/>
      <point x="980" y="722" type="curve"/>
      <point x="914" y="722"/>
      <point x="848" y="722"/>
      <point x="781" y="722" type="curve"/>
    </contour>
    <contour>
      <point x="229" y="722"/>
      <point x="229" y="700"/>
      <point x="229" y="722" type="curve"/>
      <point x="163" y="722"/>
      <point x="96" y="722"/>
      <point x="30" y="722" type="curve"/>
      <point x="30" y="700"/>
      <point x="30" y="722"/>
      <point x="30" y="700" type="curve"/>
      <point x="229" y="700"/>
      <point x="30" y="700"/>
      <point x="229" y="700" type="curve"/>
    </contour>
    <contour>
      <point x="229" y="700"/>
      <point x="229" y="722"/>
      <point x="229" y="700" type="curve"/>
      <point x="428" y="700"/>
      <point x="229" y="700"/>
      <point x="428" y="700" type="curve"/>
      <point x="428" y="722"/>
      <point x="428" y="700"/>
      <point x="428" y="722" type="curve"/>
      <point x="362" y="722"/>
      <point x="295" y="722"/>
      <point x="229" y="722" type="curve"/>
    </contour>
    <contour>
      <point x="229" y="0"/>
      <point x="229" y="22"/>
      <point x="229" y="0" type="curve"/>
      <point x="295" y="0"/>
      <point x="229" y="0"/>
      <point x="428" y="0" type="curve"/>
      <point x="428" y="22"/>
      <point x="428" y="0"/>
      <point x="428" y="22" type="curve"/>
      <point x="229" y="22"/>
      <point x="428" y="22"/>
      <point x="229" y="22" type="curve"/>
    </contour>
    <contour>
      <point x="229" y="22"/>
      <point x="229" y="0"/>
      <point x="229" y="22" type="curve"/>
      <point x="30" y="22"/>
      <point x="229" y="22"/>
      <point x="30" y="22" type="curve"/>
      <point x="30" y="0"/>
      <point x="30" y="22"/>
      <point x="30" y="0" type="curve"/>
      <point x="96" y="0"/>
      <point x="163" y="0"/>
      <point x="229" y="0" type="curve"/>
    </contour>
    <contour>
      <point x="786" y="722"/>
      <point x="825" y="722"/>
      <point x="786" y="722" type="curve"/>
      <point x="603" y="608"/>
      <point x="421" y="494"/>
      <point x="238" y="380" type="curve"/>
      <point x="272" y="380"/>
      <point x="238" y="380"/>
      <point x="272" y="380" type="curve"/>
      <point x="457" y="494"/>
      <point x="641" y="608"/>
      <point x="825" y="722" type="curve"/>
    </contour>
    <contour>
      <point x="241" y="0"/>
      <point x="217" y="0"/>
      <point x="241" y="0" type="curve"/>
      <point x="241" y="0"/>
      <point x="241" y="722"/>
      <point x="241" y="722" type="curve"/>
      <point x="217" y="722"/>
      <point x="241" y="722"/>
      <point x="217" y="722" type="curve"/>
      <point x="217" y="481"/>
      <point x="217" y="241"/>
      <point x="217" y="0" type="curve"/>
    </contour>
    <contour>
      <point x="858" y="0"/>
      <point x="817" y="0"/>
      <point x="858" y="0" type="curve"/>
      <point x="662" y="126"/>
      <point x="468" y="254"/>
      <point x="272" y="380" type="curve"/>
      <point x="238" y="380"/>
      <point x="272" y="380"/>
      <point x="238" y="380" type="curve"/>
      <point x="431" y="253"/>
      <point x="624" y="127"/>
      <point x="817" y="0" type="curve"/>
    </contour>
  </outline>
</glyph>
<glyph name="M" format="1">
  <advance width="1388"/>
  <unicode hex="004D"/>
  <outline>
    <contour>
      <point x="1159" y="0"/>
      <point x="1159" y="22"/>
      <point x="1159" y="0" type="curve"/>
      <point x="1226" y="0"/>
      <point x="1292" y="0"/>
      <point x="1358" y="0" type="curve"/>
      <point x="1358" y="22"/>
      <point x="1358" y="0"/>
      <point x="1358" y="22" type="curve"/>
      <point x="1159" y="22"/>
      <point x="1358" y="22"/>
      <point x="1159" y="22" type="curve"/>
    </contour>
    <contour>
      <point x="1159" y="22"/>
      <point x="1159" y="0"/>
      <point x="1159" y="22" type="curve"/>
      <point x="960" y="22"/>
      <point x="1159" y="22"/>
      <point x="960" y="22" type="curve"/>
      <point x="960" y="0"/>
      <point x="960" y="22"/>
      <point x="960" y="0" type="curve"/>
      <point x="1027" y="0"/>
      <point x="1093" y="0"/>
      <point x="1159" y="0" type="curve"/>
    </contour>
    <contour>
      <point x="229" y="22"/>
      <point x="229" y="0"/>
      <point x="229" y="22" type="curve"/>
      <point x="30" y="22"/>
      <point x="229" y="22"/>
      <point x="30" y="22" type="curve"/>
      <point x="30" y="0"/>
      <point x="30" y="22"/>
      <point x="30" y="0" type="curve"/>
      <point x="96" y="0"/>
      <point x="163" y="0"/>
      <point x="229" y="0" type="curve"/>
    </contour>
    <contour>
      <point x="309" y="722"/>
      <point x="309" y="700"/>
      <point x="309" y="722" type="curve"/>
      <point x="242" y="722"/>
      <point x="176" y="722"/>
      <point x="110" y="722" type="curve"/>
      <point x="110" y="700"/>
      <point x="110" y="722"/>
      <point x="110" y="700" type="curve"/>
      <point x="309" y="700"/>
      <point x="110" y="700"/>
      <point x="309" y="700" type="curve"/>
    </contour>
    <contour>
      <point x="1077" y="700"/>
      <point x="1077" y="722"/>
      <point x="1077" y="700" type="curve"/>
      <point x="1276" y="700"/>
      <point x="1077" y="700"/>
      <point x="1276" y="700" type="curve"/>
      <point x="1276" y="722"/>
      <point x="1276" y="700"/>
      <point x="1276" y="722" type="curve"/>
      <point x="1210" y="722"/>
      <point x="1143" y="722"/>
      <point x="1077" y="722" type="curve"/>
    </contour>
    <contour>
      <point x="229" y="0"/>
      <point x="229" y="22"/>
      <point x="229" y="0" type="curve"/>
      <point x="295" y="0"/>
      <point x="229" y="0"/>
      <point x="428" y="0" type="curve"/>
      <point x="428" y="22"/>
      <point x="428" y="0"/>
      <point x="428" y="22" type="curve"/>
      <point x="229" y="22"/>
      <point x="428" y="22"/>
      <point x="229" y="22" type="curve"/>
    </contour>
    <contour>
      <point x="1170" y="0"/>
      <point x="1146" y="0"/>
      <point x="1170" y="0" type="curve"/>
      <point x="1142" y="241"/>
      <point x="1114" y="481"/>
      <point x="1087" y="722" type="curve"/>
      <point x="1065" y="722"/>
      <point x="1087" y="722"/>
      <point x="1065" y="722" type="curve"/>
      <point x="1092" y="481"/>
      <point x="1119" y="241"/>
      <point x="1146" y="0" type="curve"/>
    </contour>
    <contour>
      <point x="240" y="0"/>
      <point x="216" y="0"/>
      <point x="240" y="0" type="curve"/>
      <point x="266" y="241"/>
      <point x="291" y="481"/>
      <point x="317" y="722" type="curve"/>
      <point x="295" y="722"/>
      <point x="317" y="722"/>
      <point x="295" y="722" type="curve"/>
      <point x="269" y="481"/>
      <point x="242" y="241"/>
      <point x="216" y="0" type="curve"/>
    </contour>
    <contour>
      <point x="700" y="0"/>
      <point x="676" y="0"/>
      <point x="700" y="0" type="curve"/>
      <point x="573" y="241"/>
      <point x="447" y="481"/>
      <point x="320" y="722" type="curve"/>
      <point x="298" y="722"/>
      <point x="320" y="722"/>
      <point x="298" y="722" type="curve"/>
      <point x="424" y="481"/>
      <point x="550" y="241"/>
      <point x="676" y="0" type="curve"/>
    </contour>
    <contour>
      <point x="712" y="0"/>
      <point x="687" y="0"/>
      <point x="712" y="0" type="curve"/>
      <point x="836" y="241"/>
      <point x="960" y="481"/>
      <point x="1084" y="722" type="curve"/>
      <point x="1062" y="722"/>
      <point x="1084" y="722"/>
      <point x="1062" y="722" type="curve"/>
      <point x="937" y="481"/>
      <point x="812" y="241"/>
      <point x="687" y="0" type="curve"/>
    </contour>
  </outline>
</glyph>
<glyph name="N" format="1">
  <advance width="1189"/>
  <unicode hex="004E"/>
  <outline>
    <contour>
      <point x="230" y="722"/>
      <point x="230" y="700"/>
      <point x="230" y="722" type="curve"/>
      <point x="164" y="722"/>
      <point x="98" y="722"/>
      <point x="31" y="722" type="curve"/>
      <point x="31" y="700"/>
      <point x="31" y="722"/>
      <point x="31" y="700" type="curve"/>
      <point x="230" y="700"/>
      <point x="31" y="700"/>
      <point x="230" y="700" type="curve"/>
    </contour>
    <contour>
      <point x="959" y="700"/>
      <point x="959" y="722"/>
      <point x="959" y="700" type="curve"/>
      <point x="1158" y="700"/>
      <point x="959" y="700"/>
      <point x="1158" y="700" type="curve"/>
      <point x="1158" y="722"/>
      <point x="1158" y="700"/>
      <point x="1158" y="722" type="curve"/>
      <point x="1092" y="722"/>
      <point x="1026" y="722"/>
      <point x="959" y="722" type="curve"/>
    </contour>
    <contour>
      <point x="959" y="722"/>
      <point x="959" y="700"/>
      <point x="959" y="722" type="curve"/>
      <point x="893" y="722"/>
      <point x="827" y="722"/>
      <point x="760" y="722" type="curve"/>
      <point x="760" y="700"/>
      <point x="760" y="722"/>
      <point x="760" y="700" type="curve"/>
      <point x="959" y="700"/>
      <point x="760" y="700"/>
      <point x="959" y="700" type="curve"/>
    </contour>
    <contour>
      <point x="229" y="22"/>
      <point x="229" y="0"/>
      <point x="229" y="22" type="curve"/>
      <point x="30" y="22"/>
      <point x="229" y="22"/>
      <point x="30" y="22" type="curve"/>
      <point x="30" y="0"/>
      <point x="30" y="22"/>
      <point x="30" y="0" type="curve"/>
      <point x="96" y="0"/>
      <point x="163" y="0"/>
      <point x="229" y="0" type="curve"/>
    </contour>
    <contour>
      <point x="229" y="0"/>
      <point x="229" y="22"/>
      <point x="229" y="0" type="curve"/>
      <point x="295" y="0"/>
      <point x="229" y="0"/>
      <point x="428" y="0" type="curve"/>
      <point x="428" y="22"/>
      <point x="428" y="0"/>
      <point x="428" y="22" type="curve"/>
      <point x="229" y="22"/>
      <point x="428" y="22"/>
      <point x="229" y="22" type="curve"/>
    </contour>
    <contour>
      <point x="969" y="0"/>
      <point x="940" y="0"/>
      <point x="969" y="0" type="curve"/>
      <point x="729" y="241"/>
      <point x="488" y="481"/>
      <point x="247" y="722" type="curve"/>
      <point x="218" y="722"/>
      <point x="247" y="722"/>
      <point x="218" y="722" type="curve"/>
      <point x="459" y="481"/>
      <point x="699" y="241"/>
      <point x="940" y="0" type="curve"/>
    </contour>
    <contour>
      <point x="946" y="722"/>
      <point x="970" y="722"/>
      <point x="946" y="722" type="curve"/>
      <point x="946" y="481"/>
      <point x="946" y="241"/>
      <point x="946" y="0" type="curve"/>
      <point x="970" y="0"/>
      <point x="946" y="0"/>
      <point x="970" y="0" type="curve"/>
      <point x="970" y="241"/>
      <point x="970" y="481"/>
      <point x="970" y="722" type="curve"/>
    </contour>
    <contour>
      <point x="241" y="0"/>
      <point x="217" y="0"/>
      <point x="241" y="0" type="curve"/>
      <point x="241" y="241"/>
      <point x="241" y="481"/>
      <point x="241" y="722" type="curve"/>
      <point x="217" y="722"/>
      <point x="241" y="722"/>
      <point x="217" y="722" type="curve"/>
      <point x="217" y="481"/>
      <point x="217" y="241"/>
      <point x="217" y="0" type="curve"/>
    </contour>
  </outline>
</glyph>
<glyph name="Q" format="1">
  <advance width="1011"/>
  <unicode hex="0051"/>
  <outline>
    <contour>
      <point x="435" y="4"/>
      <point x="455" y="15"/>
      <point x="435" y="4" type="curve"/>
      <point x="582" y="-196"/>
      <point x="744" y="-240"/>
      <point x="980" y="-240" type="curve"/>
      <point x="980" y="-217"/>
      <point x="980" y="-240"/>
      <point x="980" y="-217" type="curve"/>
      <point x="755" y="-217"/>
      <point x="599" y="-177"/>
      <point x="455" y="15" type="curve"/>
    </contour>
    <contour>
      <point x="54" y="360"/>
      <point x="30" y="360"/>
      <point x="54" y="360" type="curve"/>
      <point x="54" y="576"/>
      <point x="209" y="698"/>
      <point x="432" y="698" type="curve"/>
      <point x="657" y="698"/>
      <point x="813" y="578"/>
      <point x="813" y="363" type="curve"/>
      <point x="813" y="147"/>
      <point x="659" y="22"/>
      <point x="436" y="22" type="curve"/>
      <point x="211" y="22"/>
      <point x="54" y="144"/>
      <point x="54" y="360" type="curve"/>
      <point x="30" y="360"/>
      <point x="54" y="360"/>
      <point x="30" y="360" type="curve"/>
      <point x="30" y="129"/>
      <point x="197" y="-5"/>
      <point x="435" y="-5" type="curve"/>
      <point x="674" y="-5"/>
      <point x="837" y="132"/>
      <point x="837" y="364" type="curve"/>
      <point x="837" y="594"/>
      <point x="673" y="727"/>
      <point x="435" y="727" type="curve"/>
      <point x="196" y="727"/>
      <point x="30" y="591"/>
      <point x="30" y="360" type="curve"/>
    </contour>
  </outline>
</glyph>
<glyph name="R" format="1">
  <advance width="1066"/>
  <unicode hex="0052"/>
  <outline>
    <contour>
      <point x="837" y="0"/>
      <point x="837" y="22"/>
      <point x="837" y="0" type="curve"/>
      <point x="903" y="0"/>
      <point x="969" y="0"/>
      <point x="1036" y="0" type="curve"/>
      <point x="1036" y="22"/>
      <point x="1036" y="0"/>
      <point x="1036" y="22" type="curve"/>
      <point x="837" y="22"/>
      <point x="1036" y="22"/>
      <point x="837" y="22" type="curve"/>
    </contour>
    <contour>
      <point x="229" y="722"/>
      <point x="229" y="700"/>
      <point x="229" y="722" type="curve"/>
      <point x="163" y="722"/>
      <point x="96" y="722"/>
      <point x="30" y="722" type="curve"/>
      <point x="30" y="700"/>
      <point x="30" y="722"/>
      <point x="30" y="700" type="curve"/>
      <point x="229" y="700"/>
      <point x="30" y="700"/>
      <point x="229" y="700" type="curve"/>
    </contour>
    <contour>
      <point x="229" y="22"/>
      <point x="229" y="0"/>
      <point x="229" y="22" type="curve"/>
      <point x="30" y="22"/>
      <point x="229" y="22"/>
      <point x="30" y="22" type="curve"/>
      <point x="30" y="0"/>
      <point x="30" y="22"/>
      <point x="30" y="0" type="curve"/>
      <point x="96" y="0"/>
      <point x="163" y="0"/>
      <point x="229" y="0" type="curve"/>
    </contour>
    <contour>
      <point x="229" y="0"/>
      <point x="229" y="22"/>
      <point x="229" y="0" type="curve"/>
      <point x="295" y="0"/>
      <point x="229" y="0"/>
      <point x="428" y="0" type="curve"/>
      <point x="428" y="22"/>
      <point x="428" y="0"/>
      <point x="428" y="22" type="curve"/>
      <point x="229" y="22"/>
      <point x="428" y="22"/>
      <point x="229" y="22" type="curve"/>
    </contour>
    <contour>
      <point x="495" y="354"/>
      <point x="524" y="354"/>
      <point x="495" y="354" type="curve"/>
      <point x="610" y="236"/>
      <point x="725" y="118"/>
      <point x="840" y="0" type="curve"/>
      <point x="869" y="0"/>
      <point x="840" y="0"/>
      <point x="869" y="0" type="curve"/>
      <point x="754" y="118"/>
      <point x="639" y="236"/>
      <point x="524" y="354" type="curve"/>
    </contour>
    <contour>
      <point x="243" y="0"/>
      <point x="218" y="0"/>
      <point x="243" y="0" type="curve"/>
      <point x="243" y="241"/>
      <point x="243" y="481"/>
      <point x="243" y="722" type="curve"/>
      <point x="218" y="722"/>
      <point x="243" y="722"/>
      <point x="218" y="722" type="curve"/>
      <point x="218" y="481"/>
      <point x="218" y="241"/>
      <point x="218" y="0" type="curve"/>
    </contour>
    <contour>
      <point x="233" y="340"/>
      <point x="233" y="362"/>
      <point x="233" y="340" type="curve"/>
      <point x="310" y="340"/>
      <point x="386" y="340"/>
      <point x="463" y="340" type="curve"/>
      <point x="630" y="340"/>
      <point x="754" y="389"/>
      <point x="754" y="537" type="curve"/>
      <point x="754" y="679"/>
      <point x="633" y="722"/>
      <point x="473" y="722" type="curve"/>
      <point x="393" y="722"/>
      <point x="313" y="722"/>
      <point x="233" y="722" type="curve"/>
      <point x="233" y="700"/>
      <point x="233" y="722"/>
      <point x="233" y="700" type="curve"/>
      <point x="312" y="700"/>
      <point x="390" y="700"/>
      <point x="469" y="700" type="curve"/>
      <point x="616" y="700"/>
      <point x="730" y="664"/>
      <point x="730" y="535" type="curve"/>
      <point x="730" y="403"/>
      <point x="615" y="362"/>
      <point x="466" y="362" type="curve"/>
      <point x="389" y="362"/>
      <point x="311" y="362"/>
      <point x="233" y="362" type="curve"/>
    </contour>
  </outline>
</glyph>
<glyph name="S" format="1">
  <advance width="627"/>
  <unicode hex="0053"/>
  <outline>
    <contour>
      <point x="554" y="663"/>
      <point x="576" y="663"/>
      <point x="554" y="663" type="curve"/>
      <point x="554" y="543"/>
      <point x="554" y="663"/>
      <point x="554" y="543" type="curve"/>
      <point x="576" y="543"/>
      <point x="554" y="543"/>
      <point x="576" y="543" type="curve"/>
      <point x="576" y="663"/>
      <point x="576" y="543"/>
      <point x="576" y="663" type="curve"/>
    </contour>
    <contour>
      <point x="52" y="58"/>
      <point x="30" y="58"/>
      <point x="52" y="58" type="curve"/>
      <point x="52" y="178"/>
      <point x="52" y="58"/>
      <point x="52" y="178" type="curve"/>
      <point x="30" y="178"/>
      <point x="52" y="178"/>
      <point x="30" y="178" type="curve"/>
      <point x="30" y="58"/>
      <point x="30" y="178"/>
      <point x="30" y="58" type="curve"/>
    </contour>
    <contour>
      <point x="32" y="58"/>
      <point x="45" y="78"/>
      <point x="32" y="58" type="curve"/>
      <point x="122" y="16"/>
      <point x="195" y="0"/>
      <point x="293" y="0" type="curve"/>
      <point x="453" y="0"/>
      <point x="596" y="31"/>
      <point x="596" y="169" type="curve"/>
      <point x="596" y="304"/>
      <point x="466" y="334"/>
      <point x="333" y="382" type="curve"/>
      <point x="213" y="424"/>
      <point x="91" y="443"/>
      <point x="91" y="563" type="curve"/>
      <point x="91" y="668"/>
      <point x="195" y="700"/>
      <point x="316" y="700" type="curve"/>
      <point x="409" y="700"/>
      <point x="479" y="684"/>
      <point x="565" y="646" type="curve"/>
      <point x="576" y="663"/>
      <point x="565" y="646"/>
      <point x="576" y="663" type="curve"/>
      <point x="487" y="703"/>
      <point x="414" y="717"/>
      <point x="317" y="717" type="curve"/>
      <point x="182" y="717"/>
      <point x="67" y="679"/>
      <point x="67" y="562" type="curve"/>
      <point x="67" y="434"/>
      <point x="192" y="408"/>
      <point x="318" y="363" type="curve"/>
      <point x="445" y="319"/>
      <point x="572" y="297"/>
      <point x="572" y="169" type="curve"/>
      <point x="572" y="44"/>
      <point x="440" y="27"/>
      <point x="295" y="27" type="curve"/>
      <point x="202" y="27"/>
      <point x="131" y="40"/>
      <point x="45" y="78" type="curve"/>
    </contour>
  </outline>
</glyph>
<glyph name="U" format="1">
  <advance width="1133"/>
  <unicode hex="0055"/>
  <outline>
    <contour>
      <point x="904" y="700"/>
      <point x="904" y="722"/>
      <point x="904" y="700" type="curve"/>
      <point x="1103" y="700"/>
      <point x="904" y="700"/>
      <point x="1103" y="700" type="curve"/>
      <point x="1103" y="722"/>
      <point x="1103" y="700"/>
      <point x="1103" y="722" type="curve"/>
      <point x="1037" y="722"/>
      <point x="970" y="722"/>
      <point x="904" y="722" type="curve"/>
    </contour>
    <contour>
      <point x="904" y="722"/>
      <point x="904" y="700"/>
      <point x="904" y="722" type="curve"/>
      <point x="838" y="722"/>
      <point x="771" y="722"/>
      <point x="705" y="722" type="curve"/>
      <point x="705" y="700"/>
      <point x="705" y="722"/>
      <point x="705" y="700" type="curve"/>
      <point x="904" y="700"/>
      <point x="705" y="700"/>
      <point x="904" y="700" type="curve"/>
    </contour>
    <contour>
      <point x="229" y="722"/>
      <point x="229" y="700"/>
      <point x="229" y="722" type="curve"/>
      <point x="163" y="722"/>
      <point x="96" y="722"/>
      <point x="30" y="722" type="curve"/>
      <point x="30" y="700"/>
      <point x="30" y="722"/>
      <point x="30" y="700" type="curve"/>
      <point x="229" y="700"/>
      <point x="30" y="700"/>
      <point x="229" y="700" type="curve"/>
    </contour>
    <contour>
      <point x="229" y="700"/>
      <point x="229" y="722"/>
      <point x="229" y="700" type="curve"/>
      <point x="428" y="700"/>
      <point x="229" y="700"/>
      <point x="428" y="700" type="curve"/>
      <point x="428" y="722"/>
      <point x="428" y="700"/>
      <point x="428" y="722" type="curve"/>
      <point x="362" y="722"/>
      <point x="295" y="722"/>
      <point x="229" y="722" type="curve"/>
    </contour>
    <contour>
      <point x="216" y="722"/>
      <point x="240" y="722"/>
      <point x="216" y="722" type="curve"/>
      <point x="216" y="572"/>
      <point x="216" y="421"/>
      <point x="216" y="271" type="curve"/>
      <point x="216" y="69"/>
      <point x="349" y="-1"/>
      <point x="568" y="-1" type="curve"/>
      <point x="783" y="-1"/>
      <point x="915" y="67"/>
      <point x="915" y="263" type="curve"/>
      <point x="915" y="416"/>
      <point x="915" y="569"/>
      <point x="915" y="722" type="curve"/>
      <point x="891" y="722"/>
      <point x="915" y="722"/>
      <point x="891" y="722" type="curve"/>
      <point x="891" y="568"/>
      <point x="891" y="413"/>
      <point x="891" y="259" type="curve"/>
      <point x="891" y="80"/>
      <point x="768" y="23"/>
      <point x="570" y="23" type="curve"/>
      <point x="366" y="23"/>
      <point x="240" y="88"/>
      <point x="240" y="275" type="curve"/>
      <point x="240" y="424"/>
      <point x="240" y="573"/>
      <point x="240" y="722" type="curve"/>
    </contour>
  </outline>
</glyph>
<glyph name="V" format="1">
  <advance width="1190"/>
  <unicode hex="0056"/>
  <outline>
    <contour>
      <point x="961" y="722"/>
      <point x="961" y="700"/>
      <point x="961" y="722" type="curve"/>
      <point x="893" y="722"/>
      <point x="824" y="722"/>
      <point x="756" y="722" type="curve"/>
      <point x="756" y="700"/>
      <point x="756" y="722"/>
      <point x="756" y="700" type="curve"/>
      <point x="961" y="700"/>
      <point x="756" y="700"/>
      <point x="961" y="700" type="curve"/>
    </contour>
    <contour>
      <point x="229" y="722"/>
      <point x="229" y="700"/>
      <point x="229" y="722" type="curve"/>
      <point x="163" y="722"/>
      <point x="96" y="722"/>
      <point x="30" y="722" type="curve"/>
      <point x="30" y="700"/>
      <point x="30" y="722"/>
      <point x="30" y="700" type="curve"/>
      <point x="229" y="700"/>
      <point x="30" y="700"/>
      <point x="229" y="700" type="curve"/>
    </contour>
    <contour>
      <point x="961" y="700"/>
      <point x="961" y="722"/>
      <point x="961" y="700" type="curve"/>
      <point x="1160" y="700"/>
      <point x="961" y="700"/>
      <point x="1160" y="700" type="curve"/>
      <point x="1160" y="722"/>
      <point x="1160" y="700"/>
      <point x="1160" y="722" type="curve"/>
      <point x="1093" y="722"/>
      <point x="1027" y="722"/>
      <point x="961" y="722" type="curve"/>
    </contour>
    <contour>
      <point x="229" y="700"/>
      <point x="229" y="722"/>
      <point x="229" y="700" type="curve"/>
      <point x="434" y="700"/>
      <point x="229" y="700"/>
      <point x="434" y="700" type="curve"/>
      <point x="434" y="722"/>
      <point x="434" y="700"/>
      <point x="434" y="722" type="curve"/>
      <point x="365" y="722"/>
      <point x="297" y="722"/>
      <point x="229" y="722" type="curve"/>
    </contour>
    <contour>
      <point x="964" y="722"/>
      <point x="990" y="722"/>
      <point x="964" y="722" type="curve"/>
      <point x="839" y="481"/>
      <point x="714" y="241"/>
      <point x="589" y="0" type="curve"/>
      <point x="616" y="0"/>
      <point x="589" y="0"/>
      <point x="616" y="0" type="curve"/>
      <point x="741" y="241"/>
      <point x="865" y="481"/>
      <point x="990" y="722" type="curve"/>
    </contour>
    <contour>
      <point x="200" y="722"/>
      <point x="226" y="722"/>
      <point x="200" y="722" type="curve"/>
      <point x="327" y="481"/>
      <point x="454" y="241"/>
      <point x="580" y="0" type="curve"/>
      <point x="607" y="0"/>
      <point x="580" y="0"/>
      <point x="607" y="0" type="curve"/>
      <point x="480" y="241"/>
      <point x="353" y="481"/>
      <point x="226" y="722" type="curve"/>
    </contour>
  </outline>
</glyph>
<glyph name="W" format="1">
  <advance width="1452"/>
  <unicode hex="0057"/>
  <outline>
    <contour>
      <point x="731" y="700"/>
      <point x="731" y="722"/>
      <point x="731" y="700" type="curve"/>
      <point x="930" y="700"/>
      <point x="731" y="700"/>
      <point x="930" y="700" type="curve"/>
      <point x="930" y="722"/>
      <point x="930" y="700"/>
      <point x="930" y="722" type="curve"/>
      <point x="864" y="722"/>
      <point x="798" y="722"/>
      <point x="731" y="722" type="curve"/>
    </contour>
    <contour>
      <point x="731" y="722"/>
      <point x="731" y="700"/>
      <point x="731" y="722" type="curve"/>
      <point x="665" y="722"/>
      <point x="599" y="722"/>
      <point x="532" y="722" type="curve"/>
      <point x="532" y="700"/>
      <point x="532" y="722"/>
      <point x="532" y="700" type="curve"/>
      <point x="731" y="700"/>
      <point x="532" y="700"/>
      <point x="731" y="700" type="curve"/>
    </contour>
    <contour>
      <point x="229" y="700"/>
      <point x="229" y="722"/>
      <point x="229" y="700" type="curve"/>
      <point x="428" y="700"/>
      <point x="229" y="700"/>
      <point x="428" y="700" type="curve"/>
      <point x="428" y="722"/>
      <point x="428" y="700"/>
      <point x="428" y="722" type="curve"/>
      <point x="362" y="722"/>
      <point x="295" y="722"/>
      <point x="229" y="722" type="curve"/>
    </contour>
    <contour>
      <point x="229" y="722"/>
      <point x="229" y="700"/>
      <point x="229" y="722" type="curve"/>
      <point x="163" y="722"/>
      <point x="96" y="722"/>
      <point x="30" y="722" type="curve"/>
      <point x="30" y="700"/>
      <point x="30" y="722"/>
      <point x="30" y="700" type="curve"/>
      <point x="229" y="700"/>
      <point x="30" y="700"/>
      <point x="229" y="700" type="curve"/>
    </contour>
    <contour>
      <point x="1223" y="722"/>
      <point x="1223" y="700"/>
      <point x="1223" y="722" type="curve"/>
      <point x="1156" y="722"/>
      <point x="1090" y="722"/>
      <point x="1024" y="722" type="curve"/>
      <point x="1024" y="700"/>
      <point x="1024" y="722"/>
      <point x="1024" y="700" type="curve"/>
      <point x="1223" y="700"/>
      <point x="1024" y="700"/>
      <point x="1223" y="700" type="curve"/>
    </contour>
    <contour>
      <point x="1223" y="700"/>
      <point x="1223" y="722"/>
      <point x="1223" y="700" type="curve"/>
      <point x="1422" y="700"/>
      <point x="1223" y="700"/>
      <point x="1422" y="700" type="curve"/>
      <point x="1422" y="722"/>
      <point x="1422" y="700"/>
      <point x="1422" y="722" type="curve"/>
      <point x="1355" y="722"/>
      <point x="1289" y="722"/>
      <point x="1223" y="722" type="curve"/>
    </contour>
    <contour>
      <point x="470" y="0"/>
      <point x="453" y="0"/>
      <point x="470" y="0" type="curve"/>
      <point x="560" y="241"/>
      <point x="651" y="481"/>
      <point x="741" y="722" type="curve"/>
      <point x="718" y="722"/>
      <point x="741" y="722"/>
      <point x="718" y="722" type="curve"/>
      <point x="629" y="481"/>
      <point x="541" y="241"/>
      <point x="453" y="0" type="curve"/>
    </contour>
    <contour>
      <point x="727" y="722"/>
      <point x="750" y="722"/>
      <point x="727" y="722" type="curve"/>
      <point x="808" y="481"/>
      <point x="890" y="241"/>
      <point x="971" y="0" type="curve"/>
      <point x="989" y="0"/>
      <point x="971" y="0"/>
      <point x="989" y="0" type="curve"/>
      <point x="909" y="241"/>
      <point x="830" y="481"/>
      <point x="750" y="722" type="curve"/>
    </contour>
    <contour>
      <point x="200" y="722"/>
      <point x="225" y="722"/>
      <point x="200" y="722" type="curve"/>
      <point x="281" y="481"/>
      <point x="363" y="241"/>
      <point x="444" y="0" type="curve"/>
      <point x="462" y="0"/>
      <point x="444" y="0"/>
      <point x="462" y="0" type="curve"/>
      <point x="383" y="241"/>
      <point x="304" y="481"/>
      <point x="225" y="722" type="curve"/>
    </contour>
    <contour>
      <point x="1227" y="722"/>
      <point x="1252" y="722"/>
      <point x="1227" y="722" type="curve"/>
      <point x="1144" y="481"/>
      <point x="1062" y="241"/>
      <point x="979" y="0" type="curve"/>
      <point x="997" y="0"/>
      <point x="979" y="0"/>
      <point x="997" y="0" type="curve"/>
      <point x="1082" y="241"/>
      <point x="1167" y="481"/>
      <point x="1252" y="722" type="curve"/>
    </contour>
  </outline>
</glyph>
<glyph name="X" format="1">
  <advance width="1132"/>
  <unicode hex="0058"/>
  <outline>
    <contour>
      <point x="229" y="0"/>
      <point x="229" y="22"/>
      <point x="229" y="0" type="curve"/>
      <point x="295" y="0"/>
      <point x="229" y="0"/>
      <point x="428" y="0" type="curve"/>
      <point x="428" y="22"/>
      <point x="428" y="0"/>
      <point x="428" y="22" type="curve"/>
      <point x="229" y="22"/>
      <point x="428" y="22"/>
      <point x="229" y="22" type="curve"/>
    </contour>
    <contour>
      <point x="229" y="22"/>
      <point x="229" y="0"/>
      <point x="229" y="22" type="curve"/>
      <point x="30" y="22"/>
      <point x="229" y="22"/>
      <point x="30" y="22" type="curve"/>
      <point x="30" y="0"/>
      <point x="30" y="22"/>
      <point x="30" y="0" type="curve"/>
      <point x="96" y="0"/>
      <point x="163" y="0"/>
      <point x="229" y="0" type="curve"/>
    </contour>
    <contour>
      <point x="903" y="0"/>
      <point x="903" y="22"/>
      <point x="903" y="0" type="curve"/>
      <point x="969" y="0"/>
      <point x="1035" y="0"/>
      <point x="1102" y="0" type="curve"/>
      <point x="1102" y="22"/>
      <point x="1102" y="0"/>
      <point x="1102" y="22" type="curve"/>
      <point x="903" y="22"/>
      <point x="1102" y="22"/>
      <point x="903" y="22" type="curve"/>
    </contour>
    <contour>
      <point x="903" y="22"/>
      <point x="903" y="0"/>
      <point x="903" y="22" type="curve"/>
      <point x="704" y="22"/>
      <point x="903" y="22"/>
      <point x="704" y="22" type="curve"/>
      <point x="704" y="0"/>
      <point x="704" y="22"/>
      <point x="704" y="0" type="curve"/>
      <point x="770" y="0"/>
      <point x="836" y="0"/>
      <point x="903" y="0" type="curve"/>
    </contour>
    <contour>
      <point x="868" y="700"/>
      <point x="868" y="722"/>
      <point x="868" y="700" type="curve"/>
      <point x="1067" y="700"/>
      <point x="868" y="700"/>
      <point x="1067" y="700" type="curve"/>
      <point x="1067" y="722"/>
      <point x="1067" y="700"/>
      <point x="1067" y="722" type="curve"/>
      <point x="1000" y="722"/>
      <point x="934" y="722"/>
      <point x="868" y="722" type="curve"/>
    </contour>
    <contour>
      <point x="868" y="722"/>
      <point x="868" y="700"/>
      <point x="868" y="722" type="curve"/>
      <point x="801" y="722"/>
      <point x="735" y="722"/>
      <point x="669" y="722" type="curve"/>
      <point x="669" y="700"/>
      <point x="669" y="722"/>
      <point x="669" y="700" type="curve"/>
      <point x="868" y="700"/>
      <point x="669" y="700"/>
      <point x="868" y="700" type="curve"/>
    </contour>
    <contour>
      <point x="270" y="722"/>
      <point x="270" y="700"/>
      <point x="270" y="722" type="curve"/>
      <point x="203" y="722"/>
      <point x="137" y="722"/>
      <point x="71" y="722" type="curve"/>
      <point x="71" y="700"/>
      <point x="71" y="722"/>
      <point x="71" y="700" type="curve"/>
      <point x="270" y="700"/>
      <point x="71" y="700"/>
      <point x="270" y="700" type="curve"/>
    </contour>
    <contour>
      <point x="270" y="700"/>
      <point x="270" y="722"/>
      <point x="270" y="700" type="curve"/>
      <point x="469" y="700"/>
      <point x="270" y="700"/>
      <point x="469" y="700" type="curve"/>
      <point x="469" y="722"/>
      <point x="469" y="700"/>
      <point x="469" y="722" type="curve"/>
      <point x="402" y="722"/>
      <point x="336" y="722"/>
      <point x="270" y="722" type="curve"/>
    </contour>
    <contour>
      <point x="871" y="722"/>
      <point x="899" y="722"/>
      <point x="871" y="722" type="curve"/>
      <point x="646" y="481"/>
      <point x="422" y="241"/>
      <point x="198" y="0" type="curve"/>
      <point x="229" y="0"/>
      <point x="198" y="0"/>
      <point x="229" y="0" type="curve"/>
      <point x="453" y="241"/>
      <point x="676" y="481"/>
      <point x="899" y="722" type="curve"/>
    </contour>
    <contour>
      <point x="242" y="722"/>
      <point x="270" y="722"/>
      <point x="242" y="722" type="curve"/>
      <point x="463" y="481"/>
      <point x="685" y="241"/>
      <point x="906" y="0" type="curve"/>
      <point x="937" y="0"/>
      <point x="906" y="0"/>
      <point x="937" y="0" type="curve"/>
      <point x="715" y="241"/>
      <point x="493" y="481"/>
      <point x="270" y="722" type="curve"/>
    </contour>
  </outline>
</glyph>
<glyph name="bracketleft" format="1">
  <advance width="271"/>
  <unicode hex="005B"/>
  <outline>
    <contour>
      <point x="240" y="771"/>
      <point x="240" y="747"/>
      <point x="240" y="771" type="curve"/>
      <point x="172" y="771"/>
      <point x="103" y="771"/>
      <point x="34" y="771" type="curve"/>
      <point x="33" y="771"/>
      <point x="31" y="770"/>
      <point x="30" y="771" type="curve"/>
      <point x="30" y="769"/>
      <point x="31" y="767"/>
      <point x="31" y="765" type="curve"/>
      <point x="31" y="470"/>
      <point x="31" y="175"/>
      <point x="31" y="-120" type="curve"/>
      <point x="31" y="-121"/>
      <point x="30" y="-122"/>
      <point x="30" y="-123" type="curve"/>
      <point x="31" y="-123"/>
      <point x="32" y="-124"/>
      <point x="33" y="-124" type="curve"/>
      <point x="102" y="-124"/>
      <point x="171" y="-124"/>
      <point x="240" y="-124" type="curve"/>
      <point x="240" y="-100"/>
      <point x="240" y="-124"/>
      <point x="240" y="-100" type="curve"/>
      <point x="171" y="-100"/>
      <point x="102" y="-100"/>
      <point x="33" y="-100" type="curve"/>
      <point x="55" y="-100"/>
      <point x="33" y="-100"/>
      <point x="55" y="-100" type="curve"/>
      <point x="55" y="-120"/>
      <point x="55" y="-100"/>
      <point x="55" y="-120" type="curve"/>
      <point x="55" y="175"/>
      <point x="55" y="470"/>
      <point x="55" y="765" type="curve"/>
      <point x="55" y="747"/>
      <point x="55" y="765"/>
      <point x="55" y="747" type="curve"/>
      <point x="34" y="747"/>
      <point x="55" y="747"/>
      <point x="34" y="747" type="curve"/>
      <point x="103" y="747"/>
      <point x="172" y="747"/>
      <point x="240" y="747" type="curve"/>
    </contour>
  </outline>
</glyph>
<glyph name="backslash" format="1">
  <advance width="614"/>
  <unicode hex="005C"/>
  <outline>
    <contour>
      <point x="585" y="-68"/>
      <point x="559" y="-68"/>
      <point x="585" y="-68" type="curve"/>
      <point x="408" y="236"/>
      <point x="232" y="540"/>
      <point x="55" y="844" type="curve"/>
      <point x="30" y="844"/>
      <point x="55" y="844"/>
      <point x="30" y="844" type="curve"/>
      <point x="206" y="540"/>
      <point x="383" y="236"/>
      <point x="559" y="-68" type="curve"/>
    </contour>
  </outline>
</glyph>
<glyph name="b" format="1">
  <advance width="836"/>
  <unicode hex="0062"/>
  <outline>
    <contour>
      <point x="229" y="800"/>
      <point x="229" y="778"/>
      <point x="229" y="800" type="curve"/>
      <point x="163" y="800"/>
      <point x="96" y="800"/>
      <point x="30" y="800" type="curve"/>
      <point x="30" y="778"/>
      <point x="30" y="800"/>
      <point x="30" y="778" type="curve"/>
      <point x="229" y="778"/>
      <point x="30" y="778"/>
      <point x="229" y="778" type="curve"/>
    </contour>
    <contour>
      <point x="233" y="408"/>
      <point x="221" y="424"/>
      <point x="233" y="408" type="curve"/>
      <point x="291" y="462"/>
      <point x="397" y="511"/>
      <point x="514" y="511" type="curve"/>
      <point x="671" y="511"/>
      <point x="781" y="417"/>
      <point x="781" y="263" type="curve"/>
      <point x="785" y="111"/>
      <point x="670" y="20"/>
      <point x="513" y="22" type="curve"/>
      <point x="404" y="22"/>
      <point x="321" y="43"/>
      <point x="235" y="110" type="curve"/>
      <point x="220" y="97"/>
      <point x="235" y="110"/>
      <point x="220" y="97" type="curve"/>
      <point x="308" y="23"/>
      <point x="398" y="0"/>
      <point x="514" y="0" type="curve"/>
      <point x="683" y="0"/>
      <point x="806" y="100"/>
      <point x="805" y="264" type="curve"/>
      <point x="805" y="429"/>
      <point x="685" y="533"/>
      <point x="516" y="533" type="curve"/>
      <point x="394" y="533"/>
      <point x="283" y="482"/>
      <point x="221" y="424" type="curve"/>
    </contour>
    <contour>
      <point x="238" y="0"/>
      <point x="214" y="0"/>
      <point x="238" y="0" type="curve"/>
      <point x="238" y="267"/>
      <point x="238" y="533"/>
      <point x="238" y="800" type="curve"/>
      <point x="214" y="800"/>
      <point x="238" y="800"/>
      <point x="214" y="800" type="curve"/>
      <point x="214" y="533"/>
      <point x="214" y="267"/>
      <point x="214" y="0" type="curve"/>
    </contour>
    <contour>
      <point x="229" y="22"/>
      <point x="229" y="0"/>
      <point x="229" y="22" type="curve"/>
      <point x="30" y="22"/>
      <point x="229" y="22"/>
      <point x="30" y="22" type="curve"/>
      <point x="30" y="0"/>
      <point x="30" y="22"/>
      <point x="30" y="0" type="curve"/>
      <point x="96" y="0"/>
      <point x="163" y="0"/>
      <point x="229" y="0" type="curve"/>
    </contour>
  </outline>
</glyph>
<glyph name="c" format="1">
  <advance width="605"/>
  <unicode hex="0063"/>
  <outline>
    <contour>
      <point x="538" y="473"/>
      <point x="560" y="473"/>
      <point x="538" y="473" type="curve"/>
      <point x="538" y="353"/>
      <point x="538" y="473"/>
      <point x="538" y="353" type="curve"/>
      <point x="560" y="353"/>
      <point x="538" y="353"/>
      <point x="560" y="353" type="curve"/>
      <point x="560" y="473"/>
      <point x="560" y="353"/>
      <point x="560" y="473" type="curve"/>
    </contour>
    <contour>
      <point x="560" y="473"/>
      <point x="546" y="458"/>
      <point x="560" y="473" type="curve"/>
      <point x="497" y="511"/>
      <point x="421" y="538"/>
      <point x="344" y="538" type="curve"/>
      <point x="156" y="538"/>
      <point x="30" y="450"/>
      <point x="30" y="267" type="curve"/>
      <point x="30" y="84"/>
      <point x="154" y="-5"/>
      <point x="342" y="-5" type="curve"/>
      <point x="427" y="-5"/>
      <point x="512" y="25"/>
      <point x="575" y="82" type="curve"/>
      <point x="558" y="98"/>
      <point x="575" y="82"/>
      <point x="558" y="98" type="curve"/>
      <point x="500" y="45"/>
      <point x="422" y="22"/>
      <point x="343" y="22" type="curve"/>
      <point x="171" y="22"/>
      <point x="54" y="100"/>
      <point x="54" y="267" type="curve"/>
      <point x="54" y="434"/>
      <point x="171" y="511"/>
      <point x="343" y="511" type="curve"/>
      <point x="415" y="511"/>
      <point x="487" y="493"/>
      <point x="546" y="458" type="curve"/>
    </contour>
  </outline>
</glyph>
<glyph name="e" format="1">
  <advance width="601"/>
  <unicode hex="0065"/>
  <outline>
    <contour>
      <point x="43" y="273"/>
      <point x="43" y="295"/>
      <point x="43" y="273" type="curve"/>
      <point x="219" y="273"/>
      <point x="395" y="273"/>
      <point x="571" y="273" type="curve"/>
      <point x="571" y="273"/>
      <point x="571" y="273"/>
      <point x="571" y="273" type="curve"/>
      <point x="571" y="276"/>
      <point x="571" y="273"/>
      <point x="571" y="276" type="curve"/>
      <point x="571" y="285"/>
      <point x="571" y="294"/>
      <point x="571" y="303" type="curve"/>
      <point x="571" y="458"/>
      <point x="468" y="533"/>
      <point x="308" y="533" type="curve"/>
      <point x="137" y="533"/>
      <point x="30" y="448"/>
      <point x="30" y="281" type="curve"/>
      <point x="30" y="95"/>
      <point x="151" y="0"/>
      <point x="342" y="0" type="curve"/>
      <point x="434" y="0"/>
      <point x="495" y="18"/>
      <point x="570" y="74" type="curve"/>
      <point x="554" y="90"/>
      <point x="570" y="74"/>
      <point x="554" y="90" type="curve"/>
      <point x="485" y="39"/>
      <point x="427" y="22"/>
      <point x="342" y="22" type="curve"/>
      <point x="167" y="22"/>
      <point x="54" y="110"/>
      <point x="54" y="281" type="curve"/>
      <point x="54" y="433"/>
      <point x="152" y="511"/>
      <point x="307" y="511" type="curve"/>
      <point x="453" y="511"/>
      <point x="548" y="445"/>
      <point x="548" y="305" type="curve"/>
      <point x="548" y="295"/>
      <point x="548" y="286"/>
      <point x="548" y="276" type="curve"/>
      <point x="553" y="279"/>
      <point x="556" y="282"/>
      <point x="561" y="285" type="curve"/>
      <point x="564" y="288"/>
      <point x="567" y="292"/>
      <point x="571" y="295" type="curve"/>
      <point x="395" y="295"/>
      <point x="219" y="295"/>
      <point x="43" y="295" type="curve"/>
    </contour>
  </outline>
</glyph>
<glyph name="h" format="1">
  <advance width="959"/>
  <unicode hex="0068"/>
  <outline>
    <contour>
      <point x="730" y="0"/>
      <point x="730" y="22"/>
      <point x="730" y="0" type="curve"/>
      <point x="796" y="0"/>
      <point x="863" y="0"/>
      <point x="929" y="0" type="curve"/>
      <point x="929" y="22"/>
      <point x="929" y="0"/>
      <point x="929" y="22" type="curve"/>
      <point x="730" y="22"/>
      <point x="929" y="22"/>
      <point x="730" y="22" type="curve"/>
    </contour>
    <contour>
      <point x="229" y="0"/>
      <point x="229" y="22"/>
      <point x="229" y="0" type="curve"/>
      <point x="291" y="0"/>
      <point x="229" y="0"/>
      <point x="415" y="0" type="curve"/>
      <point x="415" y="22"/>
      <point x="415" y="0"/>
      <point x="415" y="22" type="curve"/>
      <point x="229" y="22"/>
      <point x="415" y="22"/>
      <point x="229" y="22" type="curve"/>
    </contour>
    <contour>
      <point x="229" y="800"/>
      <point x="229" y="778"/>
      <point x="229" y="800" type="curve"/>
      <point x="163" y="800"/>
      <point x="96" y="800"/>
      <point x="30" y="800" type="curve"/>
      <point x="30" y="778"/>
      <point x="30" y="800"/>
      <point x="30" y="778" type="curve"/>
      <point x="229" y="778"/>
      <point x="30" y="778"/>
      <point x="229" y="778" type="curve"/>
    </contour>
    <contour>
      <point x="229" y="22"/>
      <point x="229" y="0"/>
      <point x="229" y="22" type="curve"/>
      <point x="30" y="22"/>
      <point x="229" y="22"/>
      <point x="30" y="22" type="curve"/>
      <point x="30" y="0"/>
      <point x="30" y="22"/>
      <point x="30" y="0" type="curve"/>
      <point x="96" y="0"/>
      <point x="163" y="0"/>
      <point x="229" y="0" type="curve"/>
    </contour>
    <contour>
      <point x="730" y="22"/>
      <point x="730" y="0"/>
      <point x="730" y="22" type="curve"/>
      <point x="544" y="22"/>
      <point x="730" y="22"/>
      <point x="544" y="22" type="curve"/>
      <point x="544" y="0"/>
      <point x="544" y="22"/>
      <point x="544" y="0" type="curve"/>
      <point x="606" y="0"/>
      <point x="668" y="0"/>
      <point x="730" y="0" type="curve"/>
    </contour>
    <contour>
      <point x="236" y="354"/>
      <point x="224" y="365"/>
      <point x="236" y="354" type="curve"/>
      <point x="286" y="455"/>
      <point x="398" y="511"/>
      <point x="513" y="511" type="curve"/>
      <point x="639" y="511"/>
      <point x="719" y="458"/>
      <point x="719" y="341" type="curve"/>
      <point x="719" y="228"/>
      <point x="719" y="114"/>
      <point x="719" y="0" type="curve"/>
      <point x="743" y="0"/>
      <point x="719" y="0"/>
      <point x="743" y="0" type="curve"/>
      <point x="743" y="115"/>
      <point x="743" y="229"/>
      <point x="743" y="344" type="curve"/>
      <point x="743" y="474"/>
      <point x="655" y="533"/>
      <point x="516" y="533" type="curve"/>
      <point x="391" y="533"/>
      <point x="268" y="478"/>
      <point x="224" y="365" type="curve"/>
    </contour>
    <contour>
      <point x="241" y="0"/>
      <point x="217" y="0"/>
      <point x="241" y="0" type="curve"/>
      <point x="241" y="267"/>
      <point x="241" y="533"/>
      <point x="241" y="800" type="curve"/>
      <point x="217" y="800"/>
      <point x="241" y="800"/>
      <point x="217" y="800" type="curve"/>
      <point x="217" y="533"/>
      <point x="217" y="267"/>
      <point x="217" y="0" type="curve"/>
    </contour>
  </outline>
</glyph>
<glyph name="k" format="1">
  <advance width="975"/>
  <unicode hex="006B"/>
  <outline>
    <contour>
      <point x="229" y="22"/>
      <point x="229" y="0"/>
      <point x="229" y="22" type="curve"/>
      <point x="30" y="22"/>
      <point x="229" y="22"/>
      <point x="30" y="22" type="curve"/>
      <point x="30" y="0"/>
      <point x="30" y="22"/>
      <point x="30" y="0" type="curve"/>
      <point x="96" y="0"/>
      <point x="163" y="0"/>
      <point x="229" y="0" type="curve"/>
    </contour>
    <contour>
      <point x="746" y="0"/>
      <point x="746" y="22"/>
      <point x="746" y="0" type="curve"/>
      <point x="812" y="0"/>
      <point x="879" y="0"/>
      <point x="945" y="0" type="curve"/>
      <point x="945" y="22"/>
      <point x="945" y="0"/>
      <point x="945" y="22" type="curve"/>
      <point x="746" y="22"/>
      <point x="945" y="22"/>
      <point x="746" y="22" type="curve"/>
    </contour>
    <contour>
      <point x="711" y="511"/>
      <point x="711" y="533"/>
      <point x="711" y="511" type="curve"/>
      <point x="893" y="511"/>
      <point x="711" y="511"/>
      <point x="893" y="511" type="curve"/>
      <point x="893" y="533"/>
      <point x="893" y="511"/>
      <point x="893" y="533" type="curve"/>
      <point x="832" y="533"/>
      <point x="772" y="533"/>
      <point x="711" y="533" type="curve"/>
    </contour>
    <contour>
      <point x="229" y="0"/>
      <point x="229" y="22"/>
      <point x="229" y="0" type="curve"/>
      <point x="290" y="0"/>
      <point x="229" y="0"/>
      <point x="412" y="0" type="curve"/>
      <point x="412" y="22"/>
      <point x="412" y="0"/>
      <point x="412" y="22" type="curve"/>
      <point x="229" y="22"/>
      <point x="412" y="22"/>
      <point x="229" y="22" type="curve"/>
    </contour>
    <contour>
      <point x="711" y="533"/>
      <point x="711" y="511"/>
      <point x="711" y="533" type="curve"/>
      <point x="649" y="533"/>
      <point x="587" y="533"/>
      <point x="526" y="533" type="curve"/>
      <point x="526" y="511"/>
      <point x="526" y="533"/>
      <point x="526" y="511" type="curve"/>
      <point x="711" y="511"/>
      <point x="526" y="511"/>
      <point x="711" y="511" type="curve"/>
    </contour>
    <contour>
      <point x="232" y="800"/>
      <point x="232" y="778"/>
      <point x="232" y="800" type="curve"/>
      <point x="165" y="800"/>
      <point x="99" y="800"/>
      <point x="33" y="800" type="curve"/>
      <point x="33" y="778"/>
      <point x="33" y="800"/>
      <point x="33" y="778" type="curve"/>
      <point x="232" y="778"/>
      <point x="33" y="778"/>
      <point x="232" y="778" type="curve"/>
    </contour>
    <contour>
      <point x="243" y="0"/>
      <point x="218" y="0"/>
      <point x="243" y="0" type="curve"/>
      <point x="243" y="0"/>
      <point x="243" y="800"/>
      <point x="243" y="800" type="curve"/>
      <point x="218" y="800"/>
      <point x="243" y="800"/>
      <point x="218" y="800" type="curve"/>
      <point x="218" y="533"/>
      <point x="218" y="267"/>
      <point x="218" y="0" type="curve"/>
    </contour>
    <contour>
      <point x="715" y="533"/>
      <point x="753" y="533"/>
      <point x="715" y="533" type="curve"/>
      <point x="557" y="447"/>
      <point x="399" y="361"/>
      <point x="241" y="275" type="curve"/>
      <point x="279" y="275"/>
      <point x="241" y="275"/>
      <point x="279" y="275" type="curve"/>
      <point x="437" y="361"/>
      <point x="595" y="447"/>
      <point x="753" y="533" type="curve"/>
    </contour>
    <contour>
      <point x="788" y="0"/>
      <point x="750" y="0"/>
      <point x="788" y="0" type="curve"/>
      <point x="618" y="92"/>
      <point x="448" y="183"/>
      <point x="279" y="275" type="curve"/>
      <point x="241" y="275"/>
      <point x="279" y="275"/>
      <point x="241" y="275" type="curve"/>
      <point x="411" y="183"/>
      <point x="581" y="92"/>
      <point x="750" y="0" type="curve"/>
    </contour>
  </outline>
</glyph>
<glyph name="l" format="1">
  <advance width="459"/>
  <unicode hex="006C"/>
  <outline>
    <contour>
      <point x="229" y="22"/>
      <point x="229" y="0"/>
      <point x="229" y="22" type="curve"/>
      <point x="30" y="22"/>
      <point x="229" y="22"/>
      <point x="30" y="22" type="curve"/>
      <point x="30" y="0"/>
      <point x="30" y="22"/>
      <point x="30" y="0" type="curve"/>
      <point x="96" y="0"/>
      <point x="163" y="0"/>
      <point x="229" y="0" type="curve"/>
    </contour>
    <contour>
      <point x="232" y="800"/>
      <point x="232" y="778"/>
      <point x="232" y="800" type="curve"/>
      <point x="165" y="800"/>
      <point x="99" y="800"/>
      <point x="33" y="800" type="curve"/>
      <point x="33" y="778"/>
      <point x="33" y="800"/>
      <point x="33" y="778" type="curve"/>
      <point x="232" y="778"/>
      <point x="33" y="778"/>
      <point x="232" y="778" type="curve"/>
    </contour>
    <contour>
      <point x="229" y="0"/>
      <point x="229" y="22"/>
      <point x="229" y="0" type="curve"/>
      <point x="295" y="0"/>
      <point x="362" y="0"/>
      <point x="428" y="0" type="curve"/>
      <point x="428" y="22"/>
      <point x="428" y="0"/>
      <point x="428" y="22" type="curve"/>
      <point x="229" y="22"/>
      <point x="428" y="22"/>
      <point x="229" y="22" type="curve"/>
    </contour>
    <contour>
      <point x="240" y="0"/>
      <point x="216" y="0"/>
      <point x="240" y="0" type="curve"/>
      <point x="240" y="267"/>
      <point x="240" y="533"/>
      <point x="240" y="800" type="curve"/>
      <point x="216" y="800"/>
      <point x="240" y="800"/>
      <point x="216" y="800" type="curve"/>
      <point x="216" y="533"/>
      <point x="216" y="267"/>
      <point x="216" y="0" type="curve"/>
    </contour>
  </outline>
</glyph>
<glyph name="n" format="1">
  <advance width="959"/>
  <unicode hex="006E"/>
  <outline>
    <contour>
      <point x="236" y="354"/>
      <point x="224" y="365"/>
      <point x="236" y="354" type="curve"/>
      <point x="286" y="455"/>
      <point x="396" y="511"/>
      <point x="510" y="511" type="curve"/>
      <point x="637" y="511"/>
      <point x="719" y="458"/>
      <point x="719" y="341" type="curve"/>
      <point x="719" y="228"/>
      <point x="719" y="114"/>
      <point x="719" y="0" type="curve"/>
      <point x="743" y="0"/>
      <point x="719" y="0"/>
      <point x="743" y="0" type="curve"/>
      <point x="743" y="115"/>
      <point x="743" y="229"/>
      <point x="743" y="344" type="curve"/>
      <point x="743" y="474"/>
      <point x="655" y="533"/>
      <point x="516" y="533" type="curve"/>
      <point x="391" y="533"/>
      <point x="269" y="478"/>
      <point x="224" y="365" type="curve"/>
    </contour>
    <contour>
      <point x="730" y="0"/>
      <point x="730" y="22"/>
      <point x="730" y="0" type="curve"/>
      <point x="796" y="0"/>
      <point x="863" y="0"/>
      <point x="929" y="0" type="curve"/>
      <point x="929" y="22"/>
      <point x="929" y="0"/>
      <point x="929" y="22" type="curve"/>
      <point x="730" y="22"/>
      <point x="929" y="22"/>
      <point x="730" y="22" type="curve"/>
    </contour>
    <contour>
      <point x="229" y="22"/>
      <point x="229" y="0"/>
      <point x="229" y="22" type="curve"/>
      <point x="30" y="22"/>
      <point x="229" y="22"/>
      <point x="30" y="22" type="curve"/>
      <point x="30" y="0"/>
      <point x="30" y="22"/>
      <point x="30" y="0" type="curve"/>
      <point x="96" y="0"/>
      <point x="163" y="0"/>
      <point x="229" y="0" type="curve"/>
    </contour>
    <contour>
      <point x="229" y="0"/>
      <point x="229" y="22"/>
      <point x="229" y="0" type="curve"/>
      <point x="291" y="0"/>
      <point x="229" y="0"/>
      <point x="415" y="0" type="curve"/>
      <point x="415" y="22"/>
      <point x="415" y="0"/>
      <point x="415" y="22" type="curve"/>
      <point x="229" y="22"/>
      <point x="415" y="22"/>
      <point x="229" y="22" type="curve"/>
    </contour>
    <contour>
      <point x="241" y="0"/>
      <point x="217" y="0"/>
      <point x="241" y="0" type="curve"/>
      <point x="241" y="178"/>
      <point x="241" y="355"/>
      <point x="241" y="533" type="curve"/>
      <point x="217" y="533"/>
      <point x="241" y="533"/>
      <point x="217" y="533" type="curve"/>
      <point x="217" y="355"/>
      <point x="217" y="178"/>
      <point x="217" y="0" type="curve"/>
    </contour>
    <contour>
      <point x="229" y="533"/>
      <point x="229" y="511"/>
      <point x="229" y="533" type="curve"/>
      <point x="163" y="533"/>
      <point x="96" y="533"/>
      <point x="30" y="533" type="curve"/>
      <point x="30" y="511"/>
      <point x="30" y="533"/>
      <point x="30" y="511" type="curve"/>
      <point x="229" y="511"/>
      <point x="30" y="511"/>
      <point x="229" y="511" type="curve"/>
    </contour>
    <contour>
      <point x="730" y="22"/>
      <point x="730" y="0"/>
      <point x="730" y="22" type="curve"/>
      <point x="544" y="22"/>
      <point x="730" y="22"/>
      <point x="544" y="22" type="curve"/>
      <point x="544" y="0"/>
      <point x="544" y="22"/>
      <point x="544" y="0" type="curve"/>
      <point x="606" y="0"/>
      <point x="668" y="0"/>
      <point x="730" y="0" type="curve"/>
    </contour>
  </outline>
</glyph>
<glyph name="o" format="1">
  <advance width="666"/>
  <unicode hex="006F"/>
  <outline>
    <contour>
      <point x="54" y="269"/>
      <point x="30" y="268"/>
      <point x="54" y="269" type="curve"/>
      <point x="54" y="427"/>
      <point x="164" y="511"/>
      <point x="328" y="511" type="curve"/>
      <point x="497" y="511"/>
      <point x="612" y="427"/>
      <point x="612" y="265" type="curve"/>
      <point x="612" y="106"/>
      <point x="500" y="22"/>
      <point x="334" y="22" type="curve"/>
      <point x="165" y="22"/>
      <point x="54" y="108"/>
      <point x="54" y="269" type="curve"/>
      <point x="30" y="268"/>
      <point x="54" y="269"/>
      <point x="30" y="268" type="curve"/>
      <point x="30" y="92"/>
      <point x="150" y="-5"/>
      <point x="332" y="-5" type="curve"/>
      <point x="515" y="-5"/>
      <point x="636" y="89"/>
      <point x="636" y="265" type="curve"/>
      <point x="636" y="442"/>
      <point x="513" y="538"/>
      <point x="329" y="538" type="curve"/>
      <point x="148" y="538"/>
      <point x="30" y="442"/>
      <point x="30" y="268" type="curve"/>
    </contour>
  </outline>
</glyph>
<glyph name="p" format="1">
  <advance width="839"/>
  <unicode hex="0070"/>
  <outline>
    <contour>
      <point x="229" y="-279"/>
      <point x="229" y="-300"/>
      <point x="229" y="-279" type="curve"/>
      <point x="30" y="-278"/>
      <point x="229" y="-279"/>
      <point x="30" y="-278" type="curve"/>
      <point x="30" y="-300"/>
      <point x="30" y="-278"/>
      <point x="30" y="-300" type="curve"/>
      <point x="96" y="-300"/>
      <point x="163" y="-300"/>
      <point x="229" y="-300" type="curve"/>
    </contour>
    <contour>
      <point x="229" y="-300"/>
      <point x="229" y="-279"/>
      <point x="229" y="-300" type="curve"/>
      <point x="291" y="-300"/>
      <point x="353" y="-300"/>
      <point x="415" y="-300" type="curve"/>
      <point x="415" y="-278"/>
      <point x="415" y="-300"/>
      <point x="415" y="-278" type="curve"/>
      <point x="229" y="-279"/>
      <point x="415" y="-278"/>
      <point x="229" y="-279" type="curve"/>
    </contour>
    <contour>
      <point x="230" y="533"/>
      <point x="230" y="511"/>
      <point x="230" y="533" type="curve"/>
      <point x="164" y="533"/>
      <point x="98" y="533"/>
      <point x="31" y="533" type="curve"/>
      <point x="31" y="511"/>
      <point x="31" y="533"/>
      <point x="31" y="511" type="curve"/>
      <point x="230" y="511"/>
      <point x="31" y="511"/>
      <point x="230" y="511" type="curve"/>
    </contour>
    <contour>
      <point x="234" y="409"/>
      <point x="223" y="424"/>
      <point x="234" y="409" type="curve"/>
      <point x="293" y="463"/>
      <point x="399" y="511"/>
      <point x="517" y="511" type="curve"/>
      <point x="674" y="511"/>
      <point x="784" y="416"/>
      <point x="784" y="263" type="curve"/>
      <point x="788" y="111"/>
      <point x="673" y="20"/>
      <point x="515" y="21" type="curve"/>
      <point x="407" y="21"/>
      <point x="323" y="42"/>
      <point x="237" y="108" type="curve"/>
      <point x="222" y="96"/>
      <point x="237" y="108"/>
      <point x="222" y="96" type="curve"/>
      <point x="311" y="22"/>
      <point x="400" y="-1"/>
      <point x="516" y="-1" type="curve"/>
      <point x="686" y="-1"/>
      <point x="809" y="100"/>
      <point x="808" y="264" type="curve"/>
      <point x="808" y="429"/>
      <point x="688" y="533"/>
      <point x="519" y="533" type="curve"/>
      <point x="396" y="533"/>
      <point x="286" y="482"/>
      <point x="223" y="424" type="curve"/>
    </contour>
    <contour>
      <point x="241" y="-300"/>
      <point x="217" y="-300"/>
      <point x="241" y="-300" type="curve"/>
      <point x="241" y="-22"/>
      <point x="241" y="255"/>
      <point x="241" y="533" type="curve"/>
      <point x="217" y="533"/>
      <point x="241" y="533"/>
      <point x="217" y="533" type="curve"/>
      <point x="217" y="255"/>
      <point x="217" y="-22"/>
      <point x="217" y="-300" type="curve"/>
    </contour>
  </outline>
</glyph>
<glyph name="r" format="1">
  <advance width="596"/>
  <unicode hex="0072"/>
  <outline>
    <contour>
      <point x="230" y="0"/>
      <point x="230" y="22"/>
      <point x="230" y="0" type="curve"/>
      <point x="292" y="0"/>
      <point x="354" y="0"/>
      <point x="416" y="0" type="curve"/>
      <point x="416" y="22"/>
      <point x="416" y="0"/>
      <point x="416" y="22" type="curve"/>
      <point x="230" y="22"/>
      <point x="416" y="22"/>
      <point x="230" y="22" type="curve"/>
    </contour>
    <contour>
      <point x="230" y="22"/>
      <point x="230" y="0"/>
      <point x="230" y="22" type="curve"/>
      <point x="31" y="22"/>
      <point x="230" y="22"/>
      <point x="31" y="22" type="curve"/>
      <point x="31" y="0"/>
      <point x="31" y="22"/>
      <point x="31" y="0" type="curve"/>
      <point x="98" y="0"/>
      <point x="164" y="0"/>
      <point x="230" y="0" type="curve"/>
    </contour>
    <contour>
      <point x="229" y="533"/>
      <point x="229" y="511"/>
      <point x="229" y="533" type="curve"/>
      <point x="163" y="533"/>
      <point x="96" y="533"/>
      <point x="30" y="533" type="curve"/>
      <point x="30" y="511"/>
      <point x="30" y="533"/>
      <point x="30" y="511" type="curve"/>
      <point x="229" y="511"/>
      <point x="30" y="511"/>
      <point x="229" y="511" type="curve"/>
    </contour>
    <contour>
      <point x="243" y="0"/>
      <point x="218" y="0"/>
      <point x="243" y="0" type="curve"/>
      <point x="243" y="178"/>
      <point x="243" y="355"/>
      <point x="243" y="533" type="curve"/>
      <point x="218" y="533"/>
      <point x="243" y="533"/>
      <point x="218" y="533" type="curve"/>
      <point x="218" y="355"/>
      <point x="218" y="178"/>
      <point x="218" y="0" type="curve"/>
    </contour>
    <contour>
      <point x="236" y="402"/>
      <point x="229" y="411"/>
      <point x="236" y="402" type="curve"/>
      <point x="317" y="507"/>
      <point x="434" y="511"/>
      <point x="567" y="511" type="curve"/>
      <point x="567" y="538"/>
      <point x="567" y="511"/>
      <point x="567" y="538" type="curve"/>
      <point x="428" y="538"/>
      <point x="306" y="524"/>
      <point x="229" y="411" type="curve"/>
    </contour>
  </outline>
</glyph>
<glyph name="s" format="1">
  <advance width="541"/>
  <unicode hex="0073"/>
  <outline>
    <contour>
      <point x="32" y="51"/>
      <point x="44" y="70"/>
      <point x="32" y="51" type="curve"/>
      <point x="121" y="17"/>
      <point x="205" y="0"/>
      <point x="296" y="0" type="curve"/>
      <point x="419" y="0"/>
      <point x="511" y="32"/>
      <point x="511" y="140" type="curve"/>
      <point x="510" y="253"/>
      <point x="404" y="259"/>
      <point x="285" y="287" type="curve"/>
      <point x="190" y="309"/>
      <point x="107" y="323"/>
      <point x="107" y="414" type="curve"/>
      <point x="107" y="495"/>
      <point x="178" y="511"/>
      <point x="271" y="511" type="curve"/>
      <point x="340" y="511"/>
      <point x="425" y="494"/>
      <point x="472" y="471" type="curve"/>
      <point x="483" y="490"/>
      <point x="472" y="471"/>
      <point x="483" y="490" type="curve"/>
      <point x="434" y="514"/>
      <point x="344" y="533"/>
      <point x="272" y="533" type="curve"/>
      <point x="165" y="533"/>
      <point x="85" y="507"/>
      <point x="85" y="414" type="curve"/>
      <point x="85" y="313"/>
      <point x="171" y="291"/>
      <point x="277" y="266" type="curve"/>
      <point x="385" y="239"/>
      <point x="488" y="245"/>
      <point x="488" y="140" type="curve"/>
      <point x="488" y="47"/>
      <point x="405" y="22"/>
      <point x="299" y="22" type="curve"/>
      <point x="210" y="22"/>
      <point x="131" y="37"/>
      <point x="44" y="70" type="curve"/>
    </contour>
    <contour>
      <point x="461" y="490"/>
      <point x="483" y="490"/>
      <point x="461" y="490" type="curve"/>
      <point x="461" y="370"/>
      <point x="461" y="490"/>
      <point x="461" y="370" type="curve"/>
      <point x="483" y="370"/>
      <point x="461" y="370"/>
      <point x="483" y="370" type="curve"/>
      <point x="483" y="490"/>
      <point x="483" y="370"/>
      <point x="483" y="490" type="curve"/>
    </contour>
    <contour>
      <point x="52" y="51"/>
      <point x="30" y="51"/>
      <point x="52" y="51" type="curve"/>
      <point x="52" y="171"/>
      <point x="52" y="51"/>
      <point x="52" y="171" type="curve"/>
      <point x="30" y="171"/>
      <point x="52" y="171"/>
      <point x="30" y="171" type="curve"/>
      <point x="30" y="51"/>
      <point x="30" y="171"/>
      <point x="30" y="51" type="curve"/>
    </contour>
  </outline>
</glyph>
<glyph name="w" format="1">
  <advance width="1450"/>
  <unicode hex="0077"/>
  <outline>
    <contour>
      <point x="734" y="533"/>
      <point x="734" y="511"/>
      <point x="734" y="533" type="curve"/>
      <point x="668" y="533"/>
      <point x="601" y="533"/>
      <point x="535" y="533" type="curve"/>
      <point x="535" y="511"/>
      <point x="535" y="533"/>
      <point x="535" y="511" type="curve"/>
      <point x="734" y="511"/>
      <point x="535" y="511"/>
      <point x="734" y="511" type="curve"/>
    </contour>
    <contour>
      <point x="734" y="511"/>
      <point x="734" y="533"/>
      <point x="734" y="511" type="curve"/>
      <point x="933" y="511"/>
      <point x="734" y="511"/>
      <point x="933" y="511" type="curve"/>
      <point x="933" y="533"/>
      <point x="933" y="511"/>
      <point x="933" y="533" type="curve"/>
      <point x="867" y="533"/>
      <point x="800" y="533"/>
      <point x="734" y="533" type="curve"/>
    </contour>
    <contour>
      <point x="1221" y="511"/>
      <point x="1221" y="533"/>
      <point x="1221" y="511" type="curve"/>
      <point x="1420" y="511"/>
      <point x="1221" y="511"/>
      <point x="1420" y="511" type="curve"/>
      <point x="1420" y="533"/>
      <point x="1420" y="511"/>
      <point x="1420" y="533" type="curve"/>
      <point x="1354" y="533"/>
      <point x="1288" y="533"/>
      <point x="1221" y="533" type="curve"/>
    </contour>
    <contour>
      <point x="1221" y="533"/>
      <point x="1221" y="511"/>
      <point x="1221" y="533" type="curve"/>
      <point x="1155" y="533"/>
      <point x="1089" y="533"/>
      <point x="1022" y="533" type="curve"/>
      <point x="1022" y="511"/>
      <point x="1022" y="533"/>
      <point x="1022" y="511" type="curve"/>
      <point x="1221" y="511"/>
      <point x="1022" y="511"/>
      <point x="1221" y="511" type="curve"/>
    </contour>
    <contour>
      <point x="229" y="533"/>
      <point x="229" y="511"/>
      <point x="229" y="533" type="curve"/>
      <point x="163" y="533"/>
      <point x="96" y="533"/>
      <point x="30" y="533" type="curve"/>
      <point x="30" y="511"/>
      <point x="30" y="533"/>
      <point x="30" y="511" type="curve"/>
      <point x="229" y="511"/>
      <point x="30" y="511"/>
      <point x="229" y="511" type="curve"/>
    </contour>
    <contour>
      <point x="229" y="511"/>
      <point x="229" y="533"/>
      <point x="229" y="511" type="curve"/>
      <point x="428" y="511"/>
      <point x="229" y="511"/>
      <point x="428" y="511" type="curve"/>
      <point x="428" y="533"/>
      <point x="428" y="511"/>
      <point x="428" y="533" type="curve"/>
      <point x="362" y="533"/>
      <point x="295" y="533"/>
      <point x="229" y="533" type="curve"/>
    </contour>
    <contour>
      <point x="469" y="0"/>
      <point x="446" y="0"/>
      <point x="469" y="0" type="curve"/>
      <point x="561" y="178"/>
      <point x="652" y="355"/>
      <point x="743" y="533" type="curve"/>
      <point x="717" y="533"/>
      <point x="743" y="533"/>
      <point x="717" y="533" type="curve"/>
      <point x="627" y="355"/>
      <point x="536" y="178"/>
      <point x="446" y="0" type="curve"/>
    </contour>
    <contour>
      <point x="1226" y="533"/>
      <point x="1252" y="533"/>
      <point x="1226" y="533" type="curve"/>
      <point x="1141" y="355"/>
      <point x="1057" y="178"/>
      <point x="973" y="0" type="curve"/>
      <point x="996" y="0"/>
      <point x="973" y="0"/>
      <point x="996" y="0" type="curve"/>
      <point x="1081" y="178"/>
      <point x="1167" y="355"/>
      <point x="1252" y="533" type="curve"/>
    </contour>
    <contour>
      <point x="725" y="533"/>
      <point x="750" y="533"/>
      <point x="725" y="533" type="curve"/>
      <point x="807" y="355"/>
      <point x="889" y="178"/>
      <point x="971" y="0" type="curve"/>
      <point x="995" y="0"/>
      <point x="971" y="0"/>
      <point x="995" y="0" type="curve"/>
      <point x="913" y="178"/>
      <point x="831" y="355"/>
      <point x="750" y="533" type="curve"/>
    </contour>
    <contour>
      <point x="200" y="533"/>
      <point x="225" y="533"/>
      <point x="200" y="533" type="curve"/>
      <point x="281" y="355"/>
      <point x="363" y="178"/>
      <point x="445" y="0" type="curve"/>
      <point x="468" y="0"/>
      <point x="445" y="0"/>
      <point x="468" y="0" type="curve"/>
      <point x="387" y="178"/>
      <point x="306" y="355"/>
      <point x="225" y="533" type="curve"/>
    </contour>
  </outline>
</glyph>
<glyph name="x" format="1">
  <advance width="1015"/>
  <unicode hex="0078"/>
  <outline>
    <contour>
      <point x="229" y="22"/>
      <point x="229" y="0"/>
      <point x="229" y="22" type="curve"/>
      <point x="30" y="22"/>
      <point x="229" y="22"/>
      <point x="30" y="22" type="curve"/>
      <point x="30" y="0"/>
      <point x="30" y="22"/>
      <point x="30" y="0" type="curve"/>
      <point x="96" y="0"/>
      <point x="163" y="0"/>
      <point x="229" y="0" type="curve"/>
    </contour>
    <contour>
      <point x="785" y="22"/>
      <point x="785" y="0"/>
      <point x="785" y="22" type="curve"/>
      <point x="586" y="22"/>
      <point x="785" y="22"/>
      <point x="586" y="22" type="curve"/>
      <point x="586" y="0"/>
      <point x="586" y="22"/>
      <point x="586" y="0" type="curve"/>
      <point x="653" y="0"/>
      <point x="719" y="0"/>
      <point x="785" y="0" type="curve"/>
    </contour>
    <contour>
      <point x="785" y="0"/>
      <point x="785" y="22"/>
      <point x="785" y="0" type="curve"/>
      <point x="852" y="0"/>
      <point x="918" y="0"/>
      <point x="984" y="0" type="curve"/>
      <point x="984" y="22"/>
      <point x="984" y="0"/>
      <point x="984" y="22" type="curve"/>
      <point x="785" y="22"/>
      <point x="984" y="22"/>
      <point x="785" y="22" type="curve"/>
    </contour>
    <contour>
      <point x="229" y="0"/>
      <point x="229" y="22"/>
      <point x="229" y="0" type="curve"/>
      <point x="295" y="0"/>
      <point x="229" y="0"/>
      <point x="428" y="0" type="curve"/>
      <point x="428" y="22"/>
      <point x="428" y="0"/>
      <point x="428" y="22" type="curve"/>
      <point x="229" y="22"/>
      <point x="428" y="22"/>
      <point x="229" y="22" type="curve"/>
    </contour>
    <contour>
      <point x="764" y="511"/>
      <point x="764" y="533"/>
      <point x="764" y="511" type="curve"/>
      <point x="963" y="511"/>
      <point x="764" y="511"/>
      <point x="963" y="511" type="curve"/>
      <point x="963" y="533"/>
      <point x="963" y="511"/>
      <point x="963" y="533" type="curve"/>
      <point x="896" y="533"/>
      <point x="830" y="533"/>
      <point x="764" y="533" type="curve"/>
    </contour>
    <contour>
      <point x="256" y="533"/>
      <point x="256" y="511"/>
      <point x="256" y="533" type="curve"/>
      <point x="190" y="533"/>
      <point x="123" y="533"/>
      <point x="57" y="533" type="curve"/>
      <point x="57" y="511"/>
      <point x="57" y="533"/>
      <point x="57" y="511" type="curve"/>
      <point x="256" y="511"/>
      <point x="57" y="511"/>
      <point x="256" y="511" type="curve"/>
    </contour>
    <contour>
      <point x="256" y="511"/>
      <point x="256" y="533"/>
      <point x="256" y="511" type="curve"/>
      <point x="455" y="511"/>
      <point x="256" y="511"/>
      <point x="455" y="511" type="curve"/>
      <point x="455" y="533"/>
      <point x="455" y="511"/>
      <point x="455" y="533" type="curve"/>
      <point x="389" y="533"/>
      <point x="322" y="533"/>
      <point x="256" y="533" type="curve"/>
    </contour>
    <contour>
      <point x="764" y="533"/>
      <point x="764" y="511"/>
      <point x="764" y="533" type="curve"/>
      <point x="697" y="533"/>
      <point x="631" y="533"/>
      <point x="565" y="533" type="curve"/>
      <point x="565" y="511"/>
      <point x="565" y="533"/>
      <point x="565" y="511" type="curve"/>
      <point x="764" y="511"/>
      <point x="565" y="511"/>
      <point x="764" y="511" type="curve"/>
    </contour>
    <contour>
      <point x="818" y="0"/>
      <point x="789" y="0"/>
      <point x="818" y="0" type="curve"/>
      <point x="631" y="178"/>
      <point x="443" y="355"/>
      <point x="256" y="533" type="curve"/>
      <point x="228" y="533"/>
      <point x="256" y="533"/>
      <point x="228" y="533" type="curve"/>
      <point x="415" y="355"/>
      <point x="602" y="178"/>
      <point x="789" y="0" type="curve"/>
    </contour>
    <contour>
      <point x="767" y="533"/>
      <point x="794" y="533"/>
      <point x="767" y="533" type="curve"/>
      <point x="577" y="355"/>
      <point x="388" y="178"/>
      <point x="198" y="0" type="curve"/>
      <point x="228" y="0"/>
      <point x="198" y="0"/>
      <point x="228" y="0" type="curve"/>
      <point x="417" y="178"/>
      <point x="606" y="355"/>
      <point x="794" y="533" type="curve"/>
    </contour>
  </outline>
</glyph>
<glyph name="y" format="1">
  <advance width="1005"/>
  <unicode hex="0079"/>
  <outline>
    <contour>
      <point x="260" y="-279"/>
      <point x="260" y="-300"/>
      <point x="260" y="-279" type="curve"/>
      <point x="61" y="-278"/>
      <point x="260" y="-279"/>
      <point x="61" y="-278" type="curve"/>
      <point x="61" y="-300"/>
      <point x="61" y="-278"/>
      <point x="61" y="-300" type="curve"/>
      <point x="127" y="-300"/>
      <point x="194" y="-300"/>
      <point x="260" y="-300" type="curve"/>
    </contour>
    <contour>
      <point x="229" y="533"/>
      <point x="229" y="511"/>
      <point x="229" y="533" type="curve"/>
      <point x="163" y="533"/>
      <point x="96" y="533"/>
      <point x="30" y="533" type="curve"/>
      <point x="30" y="511"/>
      <point x="30" y="533"/>
      <point x="30" y="511" type="curve"/>
      <point x="229" y="511"/>
      <point x="30" y="511"/>
      <point x="229" y="511" type="curve"/>
    </contour>
    <contour>
      <point x="229" y="511"/>
      <point x="229" y="533"/>
      <point x="229" y="511" type="curve"/>
      <point x="428" y="511"/>
      <point x="229" y="511"/>
      <point x="428" y="511" type="curve"/>
      <point x="428" y="533"/>
      <point x="428" y="511"/>
      <point x="428" y="533" type="curve"/>
      <point x="362" y="533"/>
      <point x="295" y="533"/>
      <point x="229" y="533" type="curve"/>
    </contour>
    <contour>
      <point x="776" y="533"/>
      <point x="776" y="511"/>
      <point x="776" y="533" type="curve"/>
      <point x="709" y="533"/>
      <point x="643" y="533"/>
      <point x="577" y="533" type="curve"/>
      <point x="577" y="511"/>
      <point x="577" y="533"/>
      <point x="577" y="511" type="curve"/>
      <point x="776" y="511"/>
      <point x="577" y="511"/>
      <point x="776" y="511" type="curve"/>
    </contour>
    <contour>
      <point x="776" y="511"/>
      <point x="776" y="533"/>
      <point x="776" y="511" type="curve"/>
      <point x="975" y="511"/>
      <point x="776" y="511"/>
      <point x="975" y="511" type="curve"/>
      <point x="975" y="533"/>
      <point x="975" y="511"/>
      <point x="975" y="533" type="curve"/>
      <point x="909" y="533"/>
      <point x="842" y="533"/>
      <point x="776" y="533" type="curve"/>
    </contour>
    <contour>
      <point x="503" y="77"/>
      <point x="480" y="77"/>
      <point x="503" y="77" type="curve"/>
      <point x="411" y="229"/>
      <point x="318" y="381"/>
      <point x="226" y="533" type="curve"/>
      <point x="198" y="533"/>
      <point x="226" y="533"/>
      <point x="198" y="533" type="curve"/>
      <point x="292" y="381"/>
      <point x="386" y="229"/>
      <point x="480" y="77" type="curve"/>
    </contour>
    <contour>
      <point x="257" y="-300"/>
      <point x="229" y="-300"/>
      <point x="257" y="-300" type="curve"/>
      <point x="440" y="-22"/>
      <point x="622" y="255"/>
      <point x="805" y="533" type="curve"/>
      <point x="779" y="533"/>
      <point x="805" y="533"/>
      <point x="779" y="533" type="curve"/>
      <point x="596" y="255"/>
      <point x="413" y="-22"/>
      <point x="229" y="-300" type="curve"/>
    </contour>
  </outline>
</glyph>
<glyph name="z" format="1">
  <advance width="640"/>
  <unicode hex="007A"/>
  <outline>
    <contour>
      <point x="33" y="511"/>
      <point x="33" y="533"/>
      <point x="33" y="511" type="curve"/>
      <point x="203" y="511"/>
      <point x="374" y="511"/>
      <point x="544" y="511" type="curve"/>
      <point x="542" y="514"/>
      <point x="539" y="515"/>
      <point x="537" y="518" type="curve"/>
      <point x="535" y="520"/>
      <point x="533" y="521"/>
      <point x="531" y="523" type="curve"/>
      <point x="527" y="520"/>
      <point x="524" y="516"/>
      <point x="520" y="512" type="curve"/>
      <point x="357" y="348"/>
      <point x="520" y="512"/>
      <point x="30" y="22" type="curve"/>
      <point x="30" y="10"/>
      <point x="30" y="22"/>
      <point x="30" y="10" type="curve"/>
      <point x="30" y="0"/>
      <point x="30" y="10"/>
      <point x="30" y="0" type="curve"/>
      <point x="35" y="0"/>
      <point x="30" y="0"/>
      <point x="35" y="0" type="curve"/>
      <point x="610" y="0"/>
      <point x="418" y="0"/>
      <point x="610" y="0" type="curve"/>
      <point x="610" y="22"/>
      <point x="610" y="0"/>
      <point x="610" y="22" type="curve"/>
      <point x="418" y="22"/>
      <point x="226" y="22"/>
      <point x="35" y="22" type="curve"/>
      <point x="37" y="20"/>
      <point x="39" y="18"/>
      <point x="41" y="16" type="curve"/>
      <point x="43" y="14"/>
      <point x="47" y="12"/>
      <point x="49" y="10" type="curve"/>
      <point x="52" y="13"/>
      <point x="56" y="17"/>
      <point x="60" y="21" type="curve"/>
      <point x="223" y="185"/>
      <point x="60" y="21"/>
      <point x="551" y="511" type="curve"/>
      <point x="551" y="523"/>
      <point x="551" y="511"/>
      <point x="551" y="523" type="curve"/>
      <point x="551" y="533"/>
      <point x="551" y="523"/>
      <point x="551" y="533" type="curve"/>
      <point x="544" y="533"/>
      <point x="551" y="533"/>
      <point x="544" y="533" type="curve"/>
      <point x="374" y="533"/>
      <point x="203" y="533"/>
      <point x="33" y="533" type="curve"/>
    </contour>
    <contour>
      <point x="33" y="522"/>
      <point x="55" y="522"/>
      <point x="33" y="522" type="curve"/>
      <point x="33" y="402"/>
      <point x="33" y="522"/>
      <point x="33" y="402" type="curve"/>
      <point x="55" y="402"/>
      <point x="33" y="402"/>
      <point x="55" y="402" type="curve"/>
      <point x="55" y="522"/>
      <point x="55" y="402"/>
      <point x="55" y="522" type="curve"/>
    </contour>
    <contour>
      <point x="610" y="11"/>
      <point x="588" y="11"/>
      <point x="610" y="11" type="curve"/>
      <point x="610" y="131"/>
      <point x="610" y="11"/>
      <point x="610" y="131" type="curve"/>
      <point x="588" y="131"/>
      <point x="610" y="131"/>
      <point x="588" y="131" type="curve"/>
      <point x="588" y="11"/>
      <point x="588" y="131"/>
      <point x="588" y="11" type="curve"/>
    </contour>
  </outline>
</glyph>
<glyph name="braceright" format="1">
  <advance width="372"/>
  <unicode hex="007D"/>
  <outline>
    <contour>
      <point x="30" y="-125"/>
      <point x="30" y="-103"/>
      <point x="30" y="-125" type="curve"/>
      <point x="130" y="-125"/>
      <point x="198" y="-71"/>
      <point x="198" y="26" type="curve"/>
      <point x="198" y="86"/>
      <point x="198" y="145"/>
      <point x="198" y="205" type="curve"/>
      <point x="198" y="285"/>
      <point x="258" y="327"/>
      <point x="342" y="327" type="curve"/>
      <point x="342" y="350"/>
      <point x="342" y="327"/>
      <point x="342" y="350" type="curve"/>
      <point x="244" y="350"/>
      <point x="176" y="297"/>
      <point x="176" y="203" type="curve"/>
      <point x="176" y="144"/>
      <point x="176" y="84"/>
      <point x="176" y="25" type="curve"/>
      <point x="176" y="-58"/>
      <point x="117" y="-103"/>
      <point x="30" y="-103" type="curve"/>
    </contour>
    <contour>
      <point x="30" y="779"/>
      <point x="30" y="801"/>
      <point x="30" y="779" type="curve"/>
      <point x="117" y="779"/>
      <point x="176" y="734"/>
      <point x="176" y="651" type="curve"/>
      <point x="176" y="592"/>
      <point x="176" y="532"/>
      <point x="176" y="473" type="curve"/>
      <point x="176" y="378"/>
      <point x="244" y="327"/>
      <point x="342" y="327" type="curve"/>
      <point x="342" y="350"/>
      <point x="342" y="327"/>
      <point x="342" y="350" type="curve"/>
      <point x="258" y="350"/>
      <point x="198" y="390"/>
      <point x="198" y="470" type="curve"/>
      <point x="198" y="530"/>
      <point x="198" y="591"/>
      <point x="198" y="651" type="curve"/>
      <point x="198" y="748"/>
      <point x="130" y="801"/>
      <point x="30" y="801" type="curve"/>
    </contour>
  </outline>
</glyph>
<glyph name="uni0904" format="1">
  <advance width="1094"/>
  <unicode hex="0904"/>
  <outline>
    <contour>
      <point x="862" y="0"/>
      <point x="862" y="22"/>
      <point x="862" y="0" type="curve"/>
      <point x="924" y="0"/>
      <point x="986" y="0"/>
      <point x="1047" y="0" type="curve"/>
      <point x="1047" y="22"/>
      <point x="1047" y="0"/>
      <point x="1047" y="22" type="curve"/>
      <point x="862" y="22"/>
      <point x="1047" y="22"/>
      <point x="862" y="22" type="curve"/>
    </contour>
    <contour>
      <point x="862" y="22"/>
      <point x="862" y="0"/>
      <point x="862" y="22" type="curve"/>
      <point x="690" y="22"/>
      <point x="862" y="22"/>
      <point x="690" y="22" type="curve"/>
      <point x="690" y="0"/>
      <point x="690" y="22"/>
      <point x="690" y="0" type="curve"/>
      <point x="747" y="0"/>
      <point x="805" y="0"/>
      <point x="862" y="0" type="curve"/>
    </contour>
    <contour>
      <point x="52" y="122"/>
      <point x="30" y="122"/>
      <point x="52" y="122" type="curve"/>
      <point x="52" y="242"/>
      <point x="52" y="122"/>
      <point x="52" y="242" type="curve"/>
      <point x="30" y="242"/>
      <point x="52" y="242"/>
      <point x="30" y="242" type="curve"/>
      <point x="30" y="122"/>
      <point x="30" y="242"/>
      <point x="30" y="122" type="curve"/>
    </contour>
    <contour>
      <point x="873" y="703"/>
      <point x="848" y="703"/>
      <point x="873" y="703" type="curve"/>
      <point x="873" y="857"/>
      <point x="735" y="877"/>
      <point x="563" y="892" type="curve"/>
      <point x="405" y="906"/>
      <point x="269" y="898"/>
      <point x="269" y="1039" type="curve"/>
      <point x="246" y="1039"/>
      <point x="269" y="1039"/>
      <point x="246" y="1039" type="curve"/>
      <point x="246" y="887"/>
      <point x="385" y="886"/>
      <point x="559" y="871" type="curve"/>
      <point x="715" y="858"/>
      <point x="848" y="843"/>
      <point x="848" y="703" type="curve"/>
    </contour>
    <contour>
      <point x="32" y="122"/>
      <point x="49" y="136"/>
      <point x="32" y="122" type="curve"/>
      <point x="102" y="60"/>
      <point x="193" y="32"/>
      <point x="287" y="32" type="curve"/>
      <point x="452" y="27"/>
      <point x="586" y="74"/>
      <point x="582" y="217" type="curve"/>
      <point x="579" y="385"/>
      <point x="406" y="395"/>
      <point x="213" y="395" type="curve"/>
      <point x="213" y="376"/>
      <point x="213" y="395"/>
      <point x="213" y="376" type="curve"/>
      <point x="394" y="376"/>
      <point x="556" y="371"/>
      <point x="559" y="214" type="curve"/>
      <point x="563" y="86"/>
      <point x="439" y="50"/>
      <point x="289" y="53" type="curve"/>
      <point x="199" y="53"/>
      <point x="117" y="79"/>
      <point x="49" y="136" type="curve"/>
    </contour>
    <contour>
      <point x="873" y="0"/>
      <point x="848" y="0"/>
      <point x="873" y="0" type="curve"/>
      <point x="873" y="237"/>
      <point x="873" y="473"/>
      <point x="873" y="710" type="curve"/>
      <point x="848" y="710"/>
      <point x="873" y="710"/>
      <point x="848" y="710" type="curve"/>
      <point x="848" y="473"/>
      <point x="848" y="237"/>
      <point x="848" y="0" type="curve"/>
    </contour>
    <contour>
      <point x="84" y="641"/>
      <point x="70" y="659"/>
      <point x="84" y="641" type="curve"/>
      <point x="158" y="681"/>
      <point x="218" y="700"/>
      <point x="302" y="700" type="curve"/>
      <point x="422" y="700"/>
      <point x="519" y="658"/>
      <point x="518" y="550" type="curve"/>
      <point x="516" y="412"/>
      <point x="373" y="399"/>
      <point x="213" y="399" type="curve"/>
      <point x="213" y="379"/>
      <point x="213" y="399"/>
      <point x="213" y="379" type="curve"/>
      <point x="389" y="379"/>
      <point x="542" y="401"/>
      <point x="542" y="553" type="curve"/>
      <point x="542" y="673"/>
      <point x="437" y="722"/>
      <point x="305" y="722" type="curve"/>
      <point x="214" y="722"/>
      <point x="150" y="703"/>
      <point x="70" y="659" type="curve"/>
    </contour>
    <contour>
      <point x="655" y="700"/>
      <point x="655" y="722"/>
      <point x="655" y="700" type="curve"/>
      <point x="792" y="700"/>
      <point x="928" y="700"/>
      <point x="1064" y="700" type="curve"/>
      <point x="1064" y="722"/>
      <point x="1064" y="700"/>
      <point x="1064" y="722" type="curve"/>
      <point x="928" y="722"/>
      <point x="792" y="722"/>
      <point x="655" y="722" type="curve"/>
    </contour>
    <contour>
      <point x="853" y="421"/>
      <point x="859" y="403"/>
      <point x="853" y="421" type="curve"/>
      <point x="659" y="353"/>
      <point x="505" y="367"/>
      <point x="301" y="391" type="curve"/>
      <point x="295" y="378"/>
      <point x="301" y="391"/>
      <point x="295" y="378" type="curve"/>
      <point x="507" y="349"/>
      <point x="663" y="326"/>
      <point x="859" y="403" type="curve"/>
    </contour>
  </outline>
</glyph>
<glyph name="aadeva" format="1">
  <advance width="1449"/>
  <unicode hex="0906"/>
  <outline>
    <contour>
      <point x="52" y="122"/>
      <point x="30" y="122"/>
      <point x="52" y="122" type="curve"/>
      <point x="52" y="242"/>
      <point x="52" y="122"/>
      <point x="52" y="242" type="curve"/>
      <point x="30" y="242"/>
      <point x="52" y="242"/>
      <point x="30" y="242" type="curve"/>
      <point x="30" y="122"/>
      <point x="30" y="242"/>
      <point x="30" y="122" type="curve"/>
    </contour>
    <contour>
      <point x="853" y="420"/>
      <point x="861" y="404"/>
      <point x="853" y="420" type="curve"/>
      <point x="659" y="353"/>
      <point x="505" y="367"/>
      <point x="301" y="391" type="curve"/>
      <point x="295" y="378"/>
      <point x="301" y="391"/>
      <point x="295" y="378" type="curve"/>
      <point x="507" y="349"/>
      <point x="666" y="323"/>
      <point x="861" y="404" type="curve"/>
    </contour>
    <contour>
      <point x="32" y="122"/>
      <point x="49" y="136"/>
      <point x="32" y="122" type="curve"/>
      <point x="102" y="60"/>
      <point x="193" y="32"/>
      <point x="287" y="32" type="curve"/>
      <point x="452" y="27"/>
      <point x="587" y="72"/>
      <point x="584" y="215" type="curve"/>
      <point x="580" y="382"/>
      <point x="406" y="395"/>
      <point x="213" y="395" type="curve"/>
      <point x="213" y="376"/>
      <point x="213" y="395"/>
      <point x="213" y="376" type="curve"/>
      <point x="394" y="376"/>
      <point x="556" y="371"/>
      <point x="560" y="214" type="curve"/>
      <point x="563" y="86"/>
      <point x="439" y="50"/>
      <point x="289" y="53" type="curve"/>
      <point x="199" y="53"/>
      <point x="117" y="79"/>
      <point x="49" y="136" type="curve"/>
    </contour>
    <contour>
      <point x="84" y="641"/>
      <point x="70" y="659"/>
      <point x="84" y="641" type="curve"/>
      <point x="158" y="681"/>
      <point x="218" y="700"/>
      <point x="302" y="700" type="curve"/>
      <point x="422" y="700"/>
      <point x="519" y="658"/>
      <point x="518" y="550" type="curve"/>
      <point x="516" y="412"/>
      <point x="373" y="399"/>
      <point x="213" y="399" type="curve"/>
      <point x="213" y="379"/>
      <point x="213" y="399"/>
      <point x="213" y="379" type="curve"/>
      <point x="389" y="379"/>
      <point x="542" y="401"/>
      <point x="542" y="553" type="curve"/>
      <point x="542" y="673"/>
      <point x="437" y="722"/>
      <point x="305" y="722" type="curve"/>
      <point x="214" y="722"/>
      <point x="150" y="703"/>
      <point x="70" y="659" type="curve"/>
    </contour>
    <contour>
      <point x="1230" y="22"/>
      <point x="1230" y="0"/>
      <point x="1230" y="22" type="curve"/>
      <point x="1058" y="22"/>
      <point x="1230" y="22"/>
      <point x="1058" y="22" type="curve"/>
      <point x="1058" y="0"/>
      <point x="1058" y="22"/>
      <point x="1058" y="0" type="curve"/>
      <point x="1116" y="0"/>
      <point x="1173" y="0"/>
      <point x="1230" y="0" type="curve"/>
    </contour>
    <contour>
      <point x="1230" y="0"/>
      <point x="1230" y="22"/>
      <point x="1230" y="0" type="curve"/>
      <point x="1292" y="0"/>
      <point x="1354" y="0"/>
      <point x="1416" y="0" type="curve"/>
      <point x="1416" y="22"/>
      <point x="1416" y="0"/>
      <point x="1416" y="22" type="curve"/>
      <point x="1230" y="22"/>
      <point x="1416" y="22"/>
      <point x="1230" y="22" type="curve"/>
    </contour>
    <contour>
      <point x="862" y="22"/>
      <point x="862" y="0"/>
      <point x="862" y="22" type="curve"/>
      <point x="690" y="22"/>
      <point x="862" y="22"/>
      <point x="690" y="22" type="curve"/>
      <point x="690" y="0"/>
      <point x="690" y="22"/>
      <point x="690" y="0" type="curve"/>
      <point x="747" y="0"/>
      <point x="805" y="0"/>
      <point x="862" y="0" type="curve"/>
    </contour>
    <contour>
      <point x="862" y="0"/>
      <point x="862" y="22"/>
      <point x="862" y="0" type="curve"/>
      <point x="915" y="0"/>
      <point x="862" y="0"/>
      <point x="1020" y="0" type="curve"/>
      <point x="1020" y="22"/>
      <point x="1020" y="0"/>
      <point x="1020" y="22" type="curve"/>
      <point x="862" y="22"/>
      <point x="1020" y="22"/>
      <point x="862" y="22" type="curve"/>
    </contour>
    <contour>
      <point x="1216" y="712"/>
      <point x="1240" y="712"/>
      <point x="1216" y="712" type="curve"/>
      <point x="1216" y="475"/>
      <point x="1216" y="237"/>
      <point x="1216" y="0" type="curve"/>
      <point x="1240" y="0"/>
      <point x="1216" y="0"/>
      <point x="1240" y="0" type="curve"/>
      <point x="1240" y="237"/>
      <point x="1240" y="475"/>
      <point x="1240" y="712" type="curve"/>
    </contour>
    <contour>
      <point x="1419" y="722"/>
      <point x="1419" y="700"/>
      <point x="1419" y="722" type="curve"/>
      <point x="1165" y="722"/>
      <point x="910" y="722"/>
      <point x="655" y="722" type="curve"/>
      <point x="655" y="700"/>
      <point x="655" y="722"/>
      <point x="655" y="700" type="curve"/>
      <point x="910" y="700"/>
      <point x="1165" y="700"/>
      <point x="1419" y="700" type="curve"/>
    </contour>
    <contour>
      <point x="848" y="712"/>
      <point x="873" y="712"/>
      <point x="848" y="712" type="curve"/>
      <point x="848" y="475"/>
      <point x="848" y="237"/>
      <point x="848" y="0" type="curve"/>
      <point x="873" y="0"/>
      <point x="848" y="0"/>
      <point x="873" y="0" type="curve"/>
      <point x="873" y="237"/>
      <point x="873" y="475"/>
      <point x="873" y="712" type="curve"/>
    </contour>
  </outline>
</glyph>
<glyph name="ideva" format="1">
  <advance width="848"/>
  <unicode hex="0907"/>
  <outline>
    <contour>
      <point x="30" y="700"/>
      <point x="30" y="722"/>
      <point x="30" y="700" type="curve"/>
      <point x="293" y="700"/>
      <point x="556" y="700"/>
      <point x="818" y="700" type="curve"/>
      <point x="818" y="722"/>
      <point x="818" y="700"/>
      <point x="818" y="722" type="curve"/>
      <point x="556" y="722"/>
      <point x="293" y="722"/>
      <point x="30" y="722" type="curve"/>
    </contour>
    <contour>
      <point x="586" y="710"/>
      <point x="611" y="710"/>
      <point x="586" y="710" type="curve"/>
      <point x="586" y="648"/>
      <point x="586" y="586"/>
      <point x="586" y="525" type="curve"/>
      <point x="591" y="528"/>
      <point x="594" y="531"/>
      <point x="599" y="534" type="curve"/>
      <point x="603" y="537"/>
      <point x="606" y="541"/>
      <point x="611" y="543" type="curve"/>
      <point x="517" y="543"/>
      <point x="424" y="543"/>
      <point x="331" y="543" type="curve"/>
      <point x="207" y="543"/>
      <point x="108" y="525"/>
      <point x="108" y="417" type="curve"/>
      <point x="108" y="334"/>
      <point x="170" y="303"/>
      <point x="247" y="266" type="curve"/>
      <point x="253" y="290"/>
      <point x="247" y="266"/>
      <point x="253" y="290" type="curve"/>
      <point x="191" y="325"/>
      <point x="131" y="347"/>
      <point x="131" y="417" type="curve"/>
      <point x="131" y="512"/>
      <point x="222" y="522"/>
      <point x="331" y="522" type="curve"/>
      <point x="424" y="522"/>
      <point x="517" y="522"/>
      <point x="611" y="522" type="curve"/>
      <point x="611" y="522"/>
      <point x="611" y="522"/>
      <point x="611" y="522" type="curve"/>
      <point x="611" y="525"/>
      <point x="611" y="522"/>
      <point x="611" y="525" type="curve"/>
      <point x="611" y="586"/>
      <point x="611" y="648"/>
      <point x="611" y="710" type="curve"/>
    </contour>
    <contour>
      <point x="247" y="266"/>
      <point x="253" y="290"/>
      <point x="247" y="266" type="curve"/>
      <point x="338" y="298"/>
      <point x="397" y="309"/>
      <point x="493" y="309" type="curve"/>
      <point x="593" y="309"/>
      <point x="670" y="287"/>
      <point x="670" y="197" type="curve"/>
      <point x="670" y="67"/>
      <point x="547" y="52"/>
      <point x="396" y="52" type="curve"/>
      <point x="293" y="52"/>
      <point x="214" y="58"/>
      <point x="182" y="150" type="curve"/>
      <point x="162" y="135"/>
      <point x="182" y="150"/>
      <point x="162" y="135" type="curve"/>
      <point x="194" y="33"/>
      <point x="282" y="29"/>
      <point x="396" y="29" type="curve"/>
      <point x="561" y="29"/>
      <point x="692" y="54"/>
      <point x="692" y="197" type="curve"/>
      <point x="690" y="298"/>
      <point x="608" y="331"/>
      <point x="496" y="331" type="curve"/>
      <point x="401" y="332"/>
      <point x="342" y="321"/>
      <point x="253" y="290" type="curve"/>
    </contour>
    <contour>
      <point x="162" y="135"/>
      <point x="182" y="150"/>
      <point x="162" y="135" type="curve"/>
      <point x="266" y="43"/>
      <point x="370" y="-49"/>
      <point x="474" y="-140" type="curve"/>
      <point x="496" y="-124"/>
      <point x="474" y="-140"/>
      <point x="496" y="-124" type="curve"/>
      <point x="391" y="-33"/>
      <point x="286" y="59"/>
      <point x="182" y="150" type="curve"/>
    </contour>
  </outline>
</glyph>
<glyph name="edeva" format="1">
  <advance width="891"/>
  <unicode hex="090F"/>
  <outline>
    <contour>
      <point x="524" y="253"/>
      <point x="510" y="272"/>
      <point x="524" y="253" type="curve"/>
      <point x="639" y="307"/>
      <point x="716" y="383"/>
      <point x="716" y="509" type="curve"/>
      <point x="716" y="576"/>
      <point x="716" y="643"/>
      <point x="716" y="710" type="curve"/>
      <point x="692" y="710"/>
      <point x="716" y="710"/>
      <point x="692" y="710" type="curve"/>
      <point x="692" y="642"/>
      <point x="692" y="574"/>
      <point x="692" y="506" type="curve"/>
      <point x="692" y="390"/>
      <point x="617" y="322"/>
      <point x="510" y="272" type="curve"/>
    </contour>
    <contour>
      <point x="30" y="700"/>
      <point x="30" y="722"/>
      <point x="30" y="700" type="curve"/>
      <point x="307" y="700"/>
      <point x="584" y="700"/>
      <point x="860" y="700" type="curve"/>
      <point x="860" y="722"/>
      <point x="860" y="700"/>
      <point x="860" y="722" type="curve"/>
      <point x="584" y="722"/>
      <point x="307" y="722"/>
      <point x="30" y="722" type="curve"/>
    </contour>
    <contour>
      <point x="641" y="10"/>
      <point x="633" y="-12"/>
      <point x="641" y="10" type="curve"/>
      <point x="398" y="84"/>
      <point x="205" y="193"/>
      <point x="206" y="434" type="curve"/>
      <point x="206" y="526"/>
      <point x="206" y="618"/>
      <point x="206" y="710" type="curve"/>
      <point x="181" y="710"/>
      <point x="206" y="710"/>
      <point x="181" y="710" type="curve"/>
      <point x="181" y="617"/>
      <point x="181" y="523"/>
      <point x="181" y="430" type="curve"/>
      <point x="181" y="179"/>
      <point x="379" y="61"/>
      <point x="633" y="-12" type="curve"/>
    </contour>
  </outline>
</glyph>
<glyph name="khadeva" format="1">
  <advance width="1354"/>
  <unicode hex="0916"/>
  <outline>
    <contour>
      <point x="1094" y="0"/>
      <point x="1094" y="22"/>
      <point x="1094" y="0" type="curve"/>
      <point x="1156" y="0"/>
      <point x="1218" y="0"/>
      <point x="1279" y="0" type="curve"/>
      <point x="1279" y="22"/>
      <point x="1279" y="0"/>
      <point x="1279" y="22" type="curve"/>
      <point x="1094" y="22"/>
      <point x="1279" y="22"/>
      <point x="1094" y="22" type="curve"/>
    </contour>
    <contour>
      <point x="1082" y="710"/>
      <point x="1106" y="710"/>
      <point x="1082" y="710" type="curve"/>
      <point x="1082" y="473"/>
      <point x="1082" y="237"/>
      <point x="1082" y="0" type="curve"/>
      <point x="1106" y="0"/>
      <point x="1082" y="0"/>
      <point x="1106" y="0" type="curve"/>
      <point x="1106" y="237"/>
      <point x="1106" y="473"/>
      <point x="1106" y="710" type="curve"/>
    </contour>
    <contour>
      <point x="30" y="700"/>
      <point x="30" y="722"/>
      <point x="30" y="700" type="curve"/>
      <point x="461" y="700"/>
      <point x="892" y="700"/>
      <point x="1323" y="700" type="curve"/>
      <point x="1323" y="722"/>
      <point x="1323" y="700"/>
      <point x="1323" y="722" type="curve"/>
      <point x="892" y="722"/>
      <point x="461" y="722"/>
      <point x="30" y="722" type="curve"/>
    </contour>
    <contour>
      <point x="1096" y="478"/>
      <point x="1085" y="468"/>
      <point x="1096" y="478" type="curve"/>
      <point x="1043" y="533"/>
      <point x="977" y="553"/>
      <point x="901" y="553" type="curve"/>
      <point x="792" y="553"/>
      <point x="716" y="505"/>
      <point x="716" y="402" type="curve"/>
      <point x="716" y="302"/>
      <point x="797" y="256"/>
      <point x="902" y="256" type="curve"/>
      <point x="979" y="256"/>
      <point x="1047" y="277"/>
      <point x="1096" y="333" type="curve"/>
      <point x="1085" y="343"/>
      <point x="1096" y="333"/>
      <point x="1085" y="343" type="curve"/>
      <point x="1036" y="294"/>
      <point x="973" y="278"/>
      <point x="902" y="278" type="curve"/>
      <point x="812" y="278"/>
      <point x="739" y="317"/>
      <point x="739" y="402" type="curve"/>
      <point x="739" y="487"/>
      <point x="810" y="532"/>
      <point x="901" y="532" type="curve"/>
      <point x="971" y="532"/>
      <point x="1032" y="519"/>
      <point x="1085" y="468" type="curve"/>
    </contour>
    <contour>
      <point x="1090" y="159"/>
      <point x="1099" y="143"/>
      <point x="1090" y="159" type="curve"/>
      <point x="952" y="97"/>
      <point x="836" y="65"/>
      <point x="681" y="65" type="curve"/>
      <point x="383" y="65"/>
      <point x="155" y="215"/>
      <point x="155" y="494" type="curve"/>
      <point x="135" y="491"/>
      <point x="155" y="494"/>
      <point x="135" y="491" type="curve"/>
      <point x="135" y="201"/>
      <point x="371" y="44"/>
      <point x="680" y="44" type="curve"/>
      <point x="840" y="44"/>
      <point x="962" y="80"/>
      <point x="1099" y="143" type="curve"/>
    </contour>
    <contour>
      <point x="347" y="706"/>
      <point x="361" y="719"/>
      <point x="347" y="706" type="curve"/>
      <point x="419" y="653"/>
      <point x="477" y="600"/>
      <point x="477" y="513" type="curve"/>
      <point x="477" y="431"/>
      <point x="414" y="382"/>
      <point x="330" y="382" type="curve"/>
      <point x="246" y="382"/>
      <point x="181" y="417"/>
      <point x="155" y="494" type="curve"/>
      <point x="135" y="491"/>
      <point x="155" y="494"/>
      <point x="135" y="491" type="curve"/>
      <point x="165" y="405"/>
      <point x="236" y="361"/>
      <point x="329" y="361" type="curve"/>
      <point x="425" y="361"/>
      <point x="496" y="420"/>
      <point x="496" y="514" type="curve"/>
      <point x="496" y="606"/>
      <point x="437" y="663"/>
      <point x="361" y="719" type="curve"/>
    </contour>
  </outline>
</glyph>
<glyph name="dhadeva" format="1">
  <advance width="884"/>
  <unicode hex="0927"/>
  <outline>
    <contour>
      <point x="666" y="0"/>
      <point x="666" y="22"/>
      <point x="666" y="0" type="curve"/>
      <point x="728" y="0"/>
      <point x="790" y="0"/>
      <point x="851" y="0" type="curve"/>
      <point x="851" y="22"/>
      <point x="851" y="0"/>
      <point x="851" y="22" type="curve"/>
      <point x="666" y="22"/>
      <point x="851" y="22"/>
      <point x="666" y="22" type="curve"/>
    </contour>
    <contour>
      <point x="666" y="22"/>
      <point x="666" y="0"/>
      <point x="666" y="22" type="curve"/>
      <point x="467" y="22"/>
      <point x="666" y="22"/>
      <point x="467" y="22" type="curve"/>
      <point x="467" y="0"/>
      <point x="467" y="22"/>
      <point x="467" y="0" type="curve"/>
      <point x="533" y="0"/>
      <point x="599" y="0"/>
      <point x="666" y="0" type="curve"/>
    </contour>
    <contour>
      <point x="855" y="722"/>
      <point x="855" y="700"/>
      <point x="855" y="722" type="curve"/>
      <point x="787" y="722"/>
      <point x="719" y="722"/>
      <point x="651" y="722" type="curve"/>
      <point x="651" y="700"/>
      <point x="651" y="722"/>
      <point x="651" y="700" type="curve"/>
      <point x="719" y="700"/>
      <point x="787" y="700"/>
      <point x="855" y="700" type="curve"/>
    </contour>
    <contour>
      <point x="657" y="294"/>
      <point x="675" y="284"/>
      <point x="657" y="294" type="curve"/>
      <point x="585" y="171"/>
      <point x="475" y="133"/>
      <point x="332" y="133" type="curve"/>
      <point x="183" y="133"/>
      <point x="53" y="155"/>
      <point x="54" y="282" type="curve"/>
      <point x="56" y="426"/>
      <point x="209" y="429"/>
      <point x="377" y="429" type="curve"/>
      <point x="377" y="447"/>
      <point x="377" y="429"/>
      <point x="377" y="447" type="curve"/>
      <point x="195" y="447"/>
      <point x="30" y="437"/>
      <point x="30" y="280" type="curve"/>
      <point x="30" y="140"/>
      <point x="168" y="112"/>
      <point x="330" y="112" type="curve"/>
      <point x="483" y="112"/>
      <point x="601" y="152"/>
      <point x="675" y="284" type="curve"/>
    </contour>
    <contour>
      <point x="678" y="0"/>
      <point x="654" y="0"/>
      <point x="678" y="0" type="curve"/>
      <point x="678" y="237"/>
      <point x="678" y="473"/>
      <point x="678" y="710" type="curve"/>
      <point x="654" y="710"/>
      <point x="678" y="710"/>
      <point x="654" y="710" type="curve"/>
      <point x="654" y="473"/>
      <point x="654" y="237"/>
      <point x="654" y="0" type="curve"/>
    </contour>
    <contour>
      <point x="375" y="538"/>
      <point x="360" y="551"/>
      <point x="375" y="538" type="curve"/>
      <point x="400" y="558"/>
      <point x="412" y="580"/>
      <point x="412" y="612" type="curve"/>
      <point x="412" y="696"/>
      <point x="333" y="722"/>
      <point x="238" y="722" type="curve"/>
      <point x="130" y="722"/>
      <point x="46" y="683"/>
      <point x="46" y="585" type="curve"/>
      <point x="46" y="435"/>
      <point x="202" y="429"/>
      <point x="377" y="429" type="curve"/>
      <point x="377" y="447"/>
      <point x="377" y="429"/>
      <point x="377" y="447" type="curve"/>
      <point x="215" y="447"/>
      <point x="69" y="449"/>
      <point x="70" y="587" type="curve"/>
      <point x="72" y="669"/>
      <point x="144" y="700"/>
      <point x="235" y="700" type="curve"/>
      <point x="319" y="700"/>
      <point x="390" y="682"/>
      <point x="390" y="609" type="curve"/>
      <point x="390" y="584"/>
      <point x="377" y="569"/>
      <point x="360" y="551" type="curve"/>
    </contour>
  </outline>
</glyph>
<glyph name="ssadeva" format="1">
  <advance width="864"/>
  <unicode hex="0937"/>
  <outline>
    <contour>
      <point x="30" y="700"/>
      <point x="30" y="722"/>
      <point x="30" y="700" type="curve"/>
      <point x="298" y="700"/>
      <point x="566" y="700"/>
      <point x="835" y="700" type="curve"/>
      <point x="835" y="722"/>
      <point x="835" y="700"/>
      <point x="835" y="722" type="curve"/>
      <point x="566" y="722"/>
      <point x="298" y="722"/>
      <point x="30" y="722" type="curve"/>
    </contour>
    <contour>
      <point x="633" y="22"/>
      <point x="633" y="0"/>
      <point x="633" y="22" type="curve"/>
      <point x="434" y="22"/>
      <point x="633" y="22"/>
      <point x="434" y="22" type="curve"/>
      <point x="434" y="0"/>
      <point x="434" y="22"/>
      <point x="434" y="0" type="curve"/>
      <point x="501" y="0"/>
      <point x="567" y="0"/>
      <point x="633" y="0" type="curve"/>
    </contour>
    <contour>
      <point x="633" y="0"/>
      <point x="633" y="22"/>
      <point x="633" y="0" type="curve"/>
      <point x="695" y="0"/>
      <point x="757" y="0"/>
      <point x="819" y="0" type="curve"/>
      <point x="819" y="22"/>
      <point x="819" y="0"/>
      <point x="819" y="22" type="curve"/>
      <point x="633" y="22"/>
      <point x="819" y="22"/>
      <point x="633" y="22" type="curve"/>
    </contour>
    <contour>
      <point x="159" y="700"/>
      <point x="175" y="714"/>
      <point x="159" y="700" type="curve"/>
      <point x="314" y="579"/>
      <point x="469" y="458"/>
      <point x="624" y="337" type="curve"/>
      <point x="640" y="355"/>
      <point x="624" y="337"/>
      <point x="640" y="355" type="curve"/>
      <point x="485" y="474"/>
      <point x="330" y="594"/>
      <point x="175" y="714" type="curve"/>
    </contour>
    <contour>
      <point x="627" y="369"/>
      <point x="644" y="361"/>
      <point x="627" y="369" type="curve"/>
      <point x="574" y="279"/>
      <point x="492" y="260"/>
      <point x="386" y="260" type="curve"/>
      <point x="265" y="260"/>
      <point x="177" y="314"/>
      <point x="177" y="424" type="curve"/>
      <point x="177" y="519"/>
      <point x="177" y="614"/>
      <point x="177" y="709" type="curve"/>
      <point x="153" y="709"/>
      <point x="177" y="709"/>
      <point x="153" y="709" type="curve"/>
      <point x="153" y="615"/>
      <point x="153" y="521"/>
      <point x="153" y="427" type="curve"/>
      <point x="153" y="302"/>
      <point x="252" y="237"/>
      <point x="385" y="237" type="curve"/>
      <point x="499" y="237"/>
      <point x="589" y="262"/>
      <point x="644" y="361" type="curve"/>
    </contour>
    <contour>
      <point x="643" y="0"/>
      <point x="619" y="0"/>
      <point x="643" y="0" type="curve"/>
      <point x="643" y="237"/>
      <point x="643" y="473"/>
      <point x="643" y="710" type="curve"/>
      <point x="619" y="710"/>
      <point x="643" y="710"/>
      <point x="619" y="710" type="curve"/>
      <point x="619" y="473"/>
      <point x="619" y="237"/>
      <point x="619" y="0" type="curve"/>
    </contour>
  </outline>
</glyph>
<glyph name="ddhadeva_viramadeva_ddhadeva" format="1">
  <advance width="953"/>
  <unicode hex="E001"/>
  <outline>
    <contour>
      <point x="620" y="203"/>
      <point x="644" y="203"/>
      <point x="620" y="203" type="curve"/>
      <point x="620" y="144"/>
      <point x="620" y="85"/>
      <point x="620" y="26" type="curve"/>
      <point x="624" y="28"/>
      <point x="627" y="31"/>
      <point x="631" y="34" type="curve"/>
      <point x="635" y="37"/>
      <point x="638" y="41"/>
      <point x="642" y="44" type="curve"/>
      <point x="588" y="44"/>
      <point x="535" y="44"/>
      <point x="482" y="44" type="curve"/>
      <point x="308" y="44"/>
      <point x="164" y="21"/>
      <point x="164" y="-130" type="curve"/>
      <point x="164" y="-306"/>
      <point x="334" y="-320"/>
      <point x="539" y="-320" type="curve"/>
      <point x="663" y="-320"/>
      <point x="770" y="-322"/>
      <point x="770" y="-215" type="curve"/>
      <point x="770" y="-144"/>
      <point x="714" y="-119"/>
      <point x="636" y="-119" type="curve"/>
      <point x="557" y="-119"/>
      <point x="500" y="-144"/>
      <point x="500" y="-216" type="curve"/>
      <point x="500" y="-286"/>
      <point x="553" y="-306"/>
      <point x="631" y="-314" type="curve"/>
      <point x="634" y="-300"/>
      <point x="631" y="-314"/>
      <point x="634" y="-300" type="curve"/>
      <point x="569" y="-287"/>
      <point x="524" y="-275"/>
      <point x="524" y="-215" type="curve"/>
      <point x="524" y="-158"/>
      <point x="571" y="-138"/>
      <point x="635" y="-138" type="curve"/>
      <point x="699" y="-138"/>
      <point x="746" y="-158"/>
      <point x="746" y="-216" type="curve"/>
      <point x="746" y="-308"/>
      <point x="649" y="-303"/>
      <point x="541" y="-303" type="curve"/>
      <point x="350" y="-303"/>
      <point x="188" y="-294"/>
      <point x="188" y="-130" type="curve"/>
      <point x="188" y="8"/>
      <point x="322" y="21"/>
      <point x="482" y="21" type="curve"/>
      <point x="535" y="21"/>
      <point x="588" y="21"/>
      <point x="642" y="21" type="curve"/>
      <point x="644" y="21"/>
      <point x="642" y="21"/>
      <point x="644" y="21" type="curve"/>
      <point x="644" y="26"/>
      <point x="644" y="21"/>
      <point x="644" y="26" type="curve"/>
      <point x="644" y="85"/>
      <point x="644" y="144"/>
      <point x="644" y="203" type="curve"/>
    </contour>
    <contour>
      <point x="30" y="700"/>
      <point x="30" y="722"/>
      <point x="30" y="700" type="curve"/>
      <point x="327" y="700"/>
      <point x="625" y="700"/>
      <point x="922" y="700" type="curve"/>
      <point x="922" y="722"/>
      <point x="922" y="700"/>
      <point x="922" y="722" type="curve"/>
      <point x="625" y="722"/>
      <point x="327" y="722"/>
      <point x="30" y="722" type="curve"/>
    </contour>
    <contour>
      <point x="620" y="710"/>
      <point x="644" y="710"/>
      <point x="620" y="710" type="curve"/>
      <point x="620" y="646"/>
      <point x="620" y="581"/>
      <point x="620" y="517" type="curve"/>
      <point x="624" y="519"/>
      <point x="627" y="522"/>
      <point x="631" y="525" type="curve"/>
      <point x="634" y="528"/>
      <point x="637" y="531"/>
      <point x="640" y="533" type="curve"/>
      <point x="587" y="533"/>
      <point x="534" y="533"/>
      <point x="481" y="533" type="curve"/>
      <point x="308" y="533"/>
      <point x="164" y="519"/>
      <point x="164" y="371" type="curve"/>
      <point x="164" y="196"/>
      <point x="335" y="191"/>
      <point x="539" y="191" type="curve"/>
      <point x="663" y="191"/>
      <point x="771" y="186"/>
      <point x="771" y="292" type="curve"/>
      <point x="771" y="363"/>
      <point x="712" y="387"/>
      <point x="633" y="387" type="curve"/>
      <point x="552" y="387"/>
      <point x="492" y="365"/>
      <point x="492" y="292" type="curve"/>
      <point x="492" y="220"/>
      <point x="545" y="201"/>
      <point x="626" y="196" type="curve"/>
      <point x="631" y="210"/>
      <point x="626" y="196"/>
      <point x="631" y="210" type="curve"/>
      <point x="561" y="221"/>
      <point x="516" y="229"/>
      <point x="516" y="292" type="curve"/>
      <point x="516" y="350"/>
      <point x="568" y="368"/>
      <point x="633" y="368" type="curve"/>
      <point x="697" y="368"/>
      <point x="747" y="349"/>
      <point x="747" y="292" type="curve"/>
      <point x="747" y="199"/>
      <point x="649" y="209"/>
      <point x="541" y="209" type="curve"/>
      <point x="352" y="209"/>
      <point x="188" y="208"/>
      <point x="188" y="371" type="curve"/>
      <point x="188" y="506"/>
      <point x="324" y="511"/>
      <point x="481" y="511" type="curve"/>
      <point x="534" y="511"/>
      <point x="587" y="511"/>
      <point x="640" y="511" type="curve"/>
      <point x="644" y="511"/>
      <point x="640" y="511"/>
      <point x="644" y="511" type="curve"/>
      <point x="644" y="517"/>
      <point x="644" y="511"/>
      <point x="644" y="517" type="curve"/>
      <point x="644" y="581"/>
      <point x="644" y="646"/>
      <point x="644" y="710" type="curve"/>
    </contour>
  </outline>
</glyph>
<glyph name="uni0922094D0922094D092F" format="1">
  <advance width="1774"/>
  <unicode hex="E003"/>
  <outline>
    <contour>
      <point x="634" y="710"/>
      <point x="658" y="710"/>
      <point x="634" y="710" type="curve"/>
      <point x="634" y="646"/>
      <point x="634" y="581"/>
      <point x="634" y="517" type="curve"/>
      <point x="637" y="519"/>
      <point x="641" y="522"/>
      <point x="645" y="525" type="curve"/>
      <point x="648" y="528"/>
      <point x="650" y="531"/>
      <point x="654" y="533" type="curve"/>
      <point x="601" y="533"/>
      <point x="547" y="533"/>
      <point x="494" y="533" type="curve"/>
      <point x="322" y="533"/>
      <point x="177" y="519"/>
      <point x="177" y="371" type="curve"/>
      <point x="177" y="198"/>
      <point x="334" y="191"/>
      <point x="538" y="191" type="curve"/>
      <point x="662" y="191"/>
      <point x="770" y="187"/>
      <point x="770" y="293" type="curve"/>
      <point x="770" y="365"/>
      <point x="711" y="387"/>
      <point x="632" y="387" type="curve"/>
      <point x="551" y="387"/>
      <point x="490" y="365"/>
      <point x="490" y="292" type="curve"/>
      <point x="490" y="219"/>
      <point x="551" y="202"/>
      <point x="632" y="197" type="curve"/>
      <point x="635" y="209"/>
      <point x="632" y="197"/>
      <point x="635" y="209" type="curve"/>
      <point x="566" y="223"/>
      <point x="515" y="229"/>
      <point x="515" y="293" type="curve"/>
      <point x="515" y="351"/>
      <point x="566" y="368"/>
      <point x="632" y="368" type="curve"/>
      <point x="696" y="368"/>
      <point x="746" y="349"/>
      <point x="746" y="292" type="curve"/>
      <point x="746" y="199"/>
      <point x="648" y="209"/>
      <point x="540" y="209" type="curve"/>
      <point x="351" y="209"/>
      <point x="201" y="210"/>
      <point x="201" y="371" type="curve"/>
      <point x="201" y="506"/>
      <point x="337" y="511"/>
      <point x="494" y="511" type="curve"/>
      <point x="547" y="511"/>
      <point x="601" y="511"/>
      <point x="654" y="511" type="curve"/>
      <point x="658" y="511"/>
      <point x="654" y="511"/>
      <point x="658" y="511" type="curve"/>
      <point x="658" y="517"/>
      <point x="658" y="511"/>
      <point x="658" y="517" type="curve"/>
      <point x="658" y="581"/>
      <point x="658" y="646"/>
      <point x="658" y="710" type="curve"/>
    </contour>
    <contour>
      <point x="619" y="203"/>
      <point x="643" y="203"/>
      <point x="619" y="203" type="curve"/>
      <point x="619" y="144"/>
      <point x="619" y="85"/>
      <point x="619" y="26" type="curve"/>
      <point x="622" y="28"/>
      <point x="626" y="31"/>
      <point x="630" y="34" type="curve"/>
      <point x="633" y="37"/>
      <point x="636" y="41"/>
      <point x="640" y="44" type="curve"/>
      <point x="587" y="44"/>
      <point x="534" y="44"/>
      <point x="481" y="44" type="curve"/>
      <point x="307" y="44"/>
      <point x="177" y="19"/>
      <point x="177" y="-130" type="curve"/>
      <point x="177" y="-305"/>
      <point x="333" y="-320"/>
      <point x="538" y="-320" type="curve"/>
      <point x="662" y="-320"/>
      <point x="768" y="-322"/>
      <point x="768" y="-215" type="curve"/>
      <point x="768" y="-144"/>
      <point x="713" y="-119"/>
      <point x="635" y="-119" type="curve"/>
      <point x="555" y="-119"/>
      <point x="500" y="-144"/>
      <point x="500" y="-216" type="curve"/>
      <point x="500" y="-285"/>
      <point x="567" y="-309"/>
      <point x="632" y="-312" type="curve"/>
      <point x="636" y="-302"/>
      <point x="632" y="-312"/>
      <point x="636" y="-302" type="curve"/>
      <point x="576" y="-288"/>
      <point x="523" y="-275"/>
      <point x="523" y="-215" type="curve"/>
      <point x="523" y="-158"/>
      <point x="570" y="-138"/>
      <point x="634" y="-138" type="curve"/>
      <point x="697" y="-138"/>
      <point x="744" y="-158"/>
      <point x="744" y="-216" type="curve"/>
      <point x="744" y="-308"/>
      <point x="647" y="-303"/>
      <point x="540" y="-303" type="curve"/>
      <point x="349" y="-303"/>
      <point x="201" y="-292"/>
      <point x="201" y="-130" type="curve"/>
      <point x="201" y="6"/>
      <point x="321" y="21"/>
      <point x="481" y="21" type="curve"/>
      <point x="534" y="21"/>
      <point x="587" y="21"/>
      <point x="640" y="21" type="curve"/>
      <point x="643" y="21"/>
      <point x="640" y="21"/>
      <point x="643" y="21" type="curve"/>
      <point x="643" y="26"/>
      <point x="643" y="21"/>
      <point x="643" y="26" type="curve"/>
      <point x="643" y="85"/>
      <point x="643" y="144"/>
      <point x="643" y="203" type="curve"/>
    </contour>
    <contour>
      <point x="1518" y="0"/>
      <point x="1518" y="22"/>
      <point x="1518" y="0" type="curve"/>
      <point x="1575" y="0"/>
      <point x="1632" y="0"/>
      <point x="1690" y="0" type="curve"/>
      <point x="1690" y="22"/>
      <point x="1690" y="0"/>
      <point x="1690" y="22" type="curve"/>
      <point x="1518" y="22"/>
      <point x="1690" y="22"/>
      <point x="1518" y="22" type="curve"/>
    </contour>
    <contour>
      <point x="30" y="700"/>
      <point x="30" y="722"/>
      <point x="30" y="700" type="curve"/>
      <point x="601" y="700"/>
      <point x="1173" y="700"/>
      <point x="1745" y="700" type="curve"/>
      <point x="1745" y="722"/>
      <point x="1745" y="700"/>
      <point x="1745" y="722" type="curve"/>
      <point x="1173" y="722"/>
      <point x="601" y="722"/>
      <point x="30" y="722" type="curve"/>
    </contour>
    <contour>
      <point x="1530" y="0"/>
      <point x="1506" y="0"/>
      <point x="1530" y="0" type="curve"/>
      <point x="1530" y="237"/>
      <point x="1530" y="473"/>
      <point x="1530" y="710" type="curve"/>
      <point x="1506" y="710"/>
      <point x="1530" y="710"/>
      <point x="1506" y="710" type="curve"/>
      <point x="1506" y="473"/>
      <point x="1506" y="237"/>
      <point x="1506" y="0" type="curve"/>
    </contour>
    <contour>
      <point x="594" y="511"/>
      <point x="594" y="533"/>
      <point x="594" y="511" type="curve"/>
      <point x="735" y="511"/>
      <point x="831" y="511"/>
      <point x="971" y="511" type="curve"/>
      <point x="1102" y="511"/>
      <point x="1225" y="537"/>
      <point x="1225" y="422" type="curve"/>
      <point x="1225" y="309"/>
      <point x="1107" y="330"/>
      <point x="978" y="330" type="curve"/>
      <point x="975" y="330"/>
      <point x="978" y="330"/>
      <point x="975" y="330" type="curve"/>
      <point x="975" y="326"/>
      <point x="975" y="330"/>
      <point x="975" y="326" type="curve"/>
      <point x="976" y="166"/>
      <point x="1097" y="91"/>
      <point x="1269" y="91" type="curve"/>
      <point x="1387" y="91"/>
      <point x="1466" y="123"/>
      <point x="1528" y="223" type="curve"/>
      <point x="1510" y="233"/>
      <point x="1528" y="223"/>
      <point x="1510" y="233" type="curve"/>
      <point x="1450" y="141"/>
      <point x="1380" y="114"/>
      <point x="1269" y="114" type="curve"/>
      <point x="1111" y="114"/>
      <point x="999" y="182"/>
      <point x="999" y="327" type="curve"/>
      <point x="995" y="324"/>
      <point x="992" y="321"/>
      <point x="988" y="318" type="curve"/>
      <point x="984" y="314"/>
      <point x="981" y="310"/>
      <point x="978" y="307" type="curve"/>
      <point x="1123" y="307"/>
      <point x="1249" y="298"/>
      <point x="1249" y="423" type="curve"/>
      <point x="1249" y="550"/>
      <point x="1118" y="533"/>
      <point x="971" y="533" type="curve"/>
      <point x="831" y="533"/>
      <point x="735" y="533"/>
      <point x="594" y="533" type="curve"/>
    </contour>
  </outline>
</glyph>
